<?xml version="1.0" standalone="no"?>
<!DOCTYPE svg PUBLIC "-//W3C//DTD SVG 20010904//EN"
 "http://www.w3.org/TR/2001/REC-SVG-20010904/DTD/svg10.dtd">
<svg version="1.0" xmlns="http://www.w3.org/2000/svg"
 width="600.000000pt" height="498.000000pt" viewBox="0 0 600.000000 498.000000"
 preserveAspectRatio="xMidYMid meet">
<metadata>
Created by potrace 1.16, written by Peter Selinger 2001-2019
</metadata>
<g transform="translate(0.000000,498.000000) scale(0.050000,-0.041500)"
fill="#000000" stroke="none">
<path d="M4110 7392 c-19 -9 -45 -32 -57 -51 -21 -31 -23 -46 -23 -157 l0
-124 -35 -46 c-34 -44 -35 -48 -35 -137 0 -105 10 -150 41 -183 l21 -23 -38
-6 c-139 -24 -237 -75 -334 -174 -58 -58 -83 -94 -110 -153 -19 -43 -37 -77
-40 -78 -3 0 -13 20 -22 45 -43 115 -166 247 -282 303 -133 65 -287 78 -380
32 -41 -19 -76 -63 -76 -94 0 -35 42 -97 93 -137 66 -54 240 -136 387 -186
l115 -38 -439 -3 -438 -2 -51 31 c-132 81 -303 110 -451 75 -190 -45 -359
-198 -420 -379 -30 -89 -40 -189 -27 -274 l11 -78 195 -195 195 -195 -225
-225 -225 -225 -450 450 c-445 445 -449 449 -470 430 -11 -10 -20 -23 -20 -29
0 -6 212 -220 471 -475 l471 -464 213 213 213 213 15 -49 c8 -27 40 -141 72
-254 32 -113 64 -211 71 -219 7 -7 19 -11 27 -8 8 3 59 137 121 324 l108 318
58 28 c32 16 76 44 98 63 22 19 43 34 46 34 3 0 6 -173 6 -385 l0 -385 571 0
571 0 -33 27 c-44 37 -59 80 -59 168 l0 75 2540 0 2540 0 0 160 0 160 680 0
680 0 0 95 0 95 -680 0 -680 0 0 699 c0 600 2 703 15 727 19 38 21 244 3 262
-9 9 -15 64 -18 172 -4 140 -7 162 -26 187 -47 64 -38 63 -591 63 l-502 0 105
-214 104 -214 0 -128 0 -128 -48 -46 c-80 -77 -228 -120 -419 -120 -234 0
-414 63 -463 164 -16 35 -20 62 -20 157 0 78 -10 179 -32 322 l-32 207 -401 0
-402 0 -12 -87 c-7 -49 -21 -140 -32 -204 -11 -70 -19 -165 -19 -238 0 -139
-10 -175 -62 -214 -43 -33 -126 -70 -198 -88 -84 -21 -366 -18 -449 5 -75 20
-156 59 -189 90 -44 40 -52 68 -52 191 l0 116 104 215 104 214 -481 0 c-439 0
-485 -2 -517 -18z m-1003 -793 c132 -43 255 -152 317 -282 19 -40 38 -83 41
-96 7 -23 6 -23 -30 -17 -84 16 -328 101 -433 152 -183 88 -252 173 -189 232
48 45 175 50 294 11z m923 -99 l0 -130 -47 -23 c-89 -45 -395 -147 -439 -147
-33 0 49 170 121 249 82 90 210 159 320 174 17 2 33 5 38 6 4 0 7 -57 7 -129z
m0 -250 l0 -70 -182 1 c-106 0 -175 4 -163 9 11 4 74 27 140 50 66 23 136 51
155 61 19 10 38 18 43 19 4 0 7 -31 7 -70z m-1856 -292 c63 -19 140 -100 160
-167 20 -68 20 -84 0 -150 -43 -145 -212 -221 -349 -157 -93 43 -148 129 -148
231 0 70 17 117 64 170 65 74 173 103 273 73z"/>
<path d="M9793 7166 c-64 -29 -88 -105 -56 -177 14 -30 53 -75 126 -143 l107
-98 47 38 c84 69 174 157 187 183 39 78 18 164 -49 195 -56 27 -102 16 -146
-33 l-36 -40 -34 40 c-39 47 -92 59 -146 35z"/>
<path d="M10310 6271 c-149 -46 -230 -172 -230 -357 l0 -83 -107 -3 -108 -3
-11 -115 c-7 -63 -15 -136 -18 -161 l-5 -47 51 -4 c41 -4 57 -12 86 -42 l37
-36 3 -400 c3 -443 3 -441 -61 -481 l-32 -19 240 2 239 3 48 440 c26 242 47
441 47 443 1 1 109 2 241 2 l240 0 0 25 c0 26 -25 272 -36 353 l-5 42 -109 0
-108 0 -4 113 c-2 94 -7 120 -27 161 -33 67 -102 131 -168 156 -55 20 -154 26
-203 11z m166 -56 c61 -18 116 -63 151 -123 25 -42 28 -59 32 -154 l3 -108
-261 0 -261 0 0 100 c0 115 10 148 66 210 74 82 163 107 270 75z"/>
<path d="M808 5811 l-104 -106 18 -35 c23 -44 23 -67 -1 -112 l-18 -37 312
-311 313 -312 26 18 c34 22 98 22 132 -1 l27 -17 104 104 105 105 -16 31 c-21
41 -20 97 1 133 l18 30 -315 307 -314 308 -35 -18 c-45 -23 -68 -23 -113 0
l-36 19 -104 -106z m481 -246 c70 -36 113 -126 92 -195 -24 -81 -87 -130 -167
-130 -102 0 -182 88 -171 186 6 56 45 115 88 137 42 21 121 22 158 2z"/>
<path d="M10677 5263 c-4 -3 -7 -60 -7 -125 0 -122 8 -155 49 -202 47 -53 164
-76 228 -43 47 25 90 75 102 120 7 24 11 88 9 147 -3 97 -4 105 -23 105 -19 0
-20 -8 -25 -122 -5 -130 -13 -152 -72 -196 -31 -23 -104 -25 -147 -2 -57 29
-71 66 -71 191 0 72 -4 114 -12 122 -14 14 -22 15 -31 5z"/>
<path d="M9509 4857 c-98 -66 -52 -212 68 -212 39 0 49 5 79 37 26 28 34 47
34 74 0 47 -26 90 -66 109 -44 21 -75 19 -115 -8z"/>
</g>
</svg>
