<?xml version="1.0" standalone="no"?>
<!DOCTYPE svg PUBLIC "-//W3C//DTD SVG 20010904//EN"
 "http://www.w3.org/TR/2001/REC-SVG-20010904/DTD/svg10.dtd">
<svg version="1.0" xmlns="http://www.w3.org/2000/svg"
 width="600.000000pt" height="498.000000pt" viewBox="0 0 600.000000 498.000000"
 preserveAspectRatio="xMidYMid meet">
<metadata>
Created by potrace 1.16, written by Peter Selinger 2001-2019
</metadata>
<g transform="translate(0.000000,498.000000) scale(0.008000,-0.009960)"
fill="#000000" stroke="none">
<path d="M29152 36199 c-421 -49 -846 -263 -1140 -574 -256 -270 -420 -595
-494 -980 -21 -108 -22 -132 -25 -1452 -3 -1092 -1 -1343 9 -1343 7 0 90 -7
183 -15 94 -8 182 -15 198 -15 l27 0 0 1258 c1 691 5 1302 10 1357 18 207 66
369 161 556 77 148 161 259 292 385 209 202 434 321 731 387 l101 22 7535 0
c7244 0 7539 -1 7640 -18 502 -87 926 -423 1122 -887 37 -88 63 -163 74 -215
3 -16 13 -61 22 -100 14 -63 16 -327 19 -2575 1 -1378 -1 -7815 -6 -14305 l-8
-11800 -21 -90 c-33 -144 -40 -170 -73 -252 -186 -469 -574 -799 -1077 -915
l-97 -23 -7433 -2 -7433 -3 -56 -61 c-105 -112 -251 -198 -408 -240 l-80 -21
-11553 4 -11554 3 -19 -24 c-30 -37 -23 -127 11 -152 24 -17 1174 -18 29235
-28 16066 -6 30453 -11 31973 -11 l2763 0 24 25 c39 38 30 141 -14 161 -9 4
-2693 10 -5965 12 -5659 4 -5947 5 -5898 21 99 34 156 89 203 195 18 42 21 63
17 140 -5 97 -31 169 -77 210 -17 16 -21 31 -21 86 0 73 6 80 71 80 14 0 61 9
104 20 278 71 493 287 566 566 13 53 22 127 26 227 l6 147 -415 0 c-464 0
-500 -4 -640 -73 l-68 -33 0 4748 0 4748 -90 0 -90 0 0 -4831 0 -4830 -29 -42
c-92 -135 -120 -240 -128 -479 l-6 -178 111 0 112 0 0 -68 c0 -58 -3 -72 -21
-88 -12 -10 -35 -46 -50 -79 -25 -51 -29 -72 -29 -142 0 -161 78 -274 223
-324 50 -18 -25 -18 -2325 -19 -1308 0 -2378 2 -2378 4 0 2 29 18 65 35 116
57 180 167 178 306 -1 80 -20 139 -63 198 -26 36 -30 49 -30 109 l0 68 300 0
300 0 0 148 c0 220 -27 344 -102 470 -38 64 -141 178 -193 213 l-35 24 0 3362
0 3361 154 304 c85 167 186 374 225 460 212 469 363 920 430 1283 24 129 35
238 23 231 -5 -3 -9 1 -9 8 0 8 5 12 12 10 6 -3 11 3 12 13 1 22 10 60 16 71
3 4 8 30 12 57 10 68 13 84 24 128 5 20 8 51 7 67 -1 16 2 27 6 24 13 -8 9 11
-4 25 -9 9 -9 12 -1 7 12 -6 30 50 19 61 -3 4 -1 12 4 18 6 7 9 23 6 36 -2 13
1 30 6 36 6 7 7 21 3 30 -13 28 -14 44 -4 37 5 -3 6 -10 3 -16 -5 -7 -2 -8 5
-4 7 5 10 14 7 22 -12 31 380 122 674 155 156 18 567 15 729 -5 74 -9 136 -14
138 -12 2 2 -28 33 -68 69 l-71 65 -107 9 c-171 13 -520 8 -681 -11 -165 -19
-351 -54 -489 -91 -52 -14 -95 -24 -97 -23 -1 2 1 22 5 45 5 27 4 46 -3 54 -8
9 -8 10 2 5 8 -5 12 0 13 16 0 13 2 34 5 47 4 21 3 22 -13 10 -16 -12 -17 -12
-6 2 7 9 9 20 5 24 -4 5 -2 5 4 2 7 -4 15 0 18 9 4 11 2 15 -8 11 -17 -7 -16
14 2 35 6 8 9 18 5 21 -3 4 -1 7 6 7 9 0 11 11 8 35 -3 19 -2 35 2 35 4 0 6
20 6 45 -1 24 2 42 7 39 9 -6 4 47 -6 64 -3 6 0 14 8 19 10 6 16 29 18 78 2
39 7 73 12 77 6 4 5 12 -3 21 -9 12 -9 16 0 19 9 3 9 9 0 25 -8 17 -8 24 1 29
7 5 8 3 3 -6 -5 -8 -4 -11 2 -7 6 4 11 26 11 49 0 24 2 50 6 58 10 25 1 75
-13 72 -7 -1 -10 2 -6 8 3 6 11 8 16 5 5 -4 9 0 9 9 0 8 3 22 7 32 5 13 3 15
-8 9 -12 -7 -12 -6 -1 7 7 9 12 29 10 45 -1 16 2 34 6 41 4 7 2 20 -6 29 -9
12 -9 15 0 9 7 -4 12 -1 12 8 0 10 -6 13 -17 9 -17 -5 -17 -5 -2 8 24 20 28
42 10 57 -9 8 -11 11 -4 8 18 -10 23 7 8 28 -9 11 -20 16 -30 12 -9 -3 -13 -2
-10 4 10 15 33 12 43 -6 7 -12 10 -4 10 31 1 38 -5 58 -30 97 -17 26 -36 47
-42 46 -6 -2 -13 2 -14 7 -2 6 -8 16 -14 22 -6 7 -8 20 -4 28 3 8 1 15 -5 15
-6 0 -7 5 -4 10 3 6 1 10 -4 10 -6 0 -10 3 -9 8 5 23 -16 42 -42 37 -16 -3
-32 -1 -35 5 -3 5 0 7 8 4 8 -3 18 0 22 5 3 6 11 9 16 6 5 -4 4 5 -3 19 -13
29 -19 31 -36 14 -9 -9 -15 -9 -24 0 -9 9 -9 15 1 25 10 10 11 9 6 -6 -8 -19
5 -23 23 -5 8 8 7 19 -6 42 -9 17 -20 33 -25 34 -4 2 -5 7 -2 12 3 4 -6 24
-20 44 -13 20 -22 36 -19 36 8 0 -29 63 -46 78 -9 8 -10 11 -2 7 15 -8 -21 69
-47 99 -9 11 -10 16 -3 12 7 -4 3 12 -10 38 -12 25 -25 43 -29 41 -4 -3 -10 2
-13 11 -3 8 -2 12 4 9 6 -3 10 -4 10 -1 0 11 -35 63 -43 64 -5 0 -12 4 -15 8
-4 4 -1 4 7 -1 23 -13 4 47 -22 68 -12 10 -16 15 -8 11 10 -5 13 -3 9 7 -32
80 -41 98 -49 93 -5 -3 -6 2 -3 10 3 9 1 16 -5 16 -6 0 -8 7 -4 17 5 12 3 14
-7 8 -8 -5 -11 -4 -7 2 9 15 -24 94 -36 86 -6 -3 -7 -1 -4 4 9 14 -12 75 -23
68 -4 -3 -8 1 -7 8 1 35 -4 46 -18 41 -8 -4 -15 -1 -15 5 0 6 4 11 9 11 5 0 4
14 -2 30 -12 32 -25 37 -47 18 -8 -7 -7 -4 3 8 24 29 21 45 -10 71 -22 18 -25
24 -15 31 11 8 9 20 -12 64 -14 30 -26 60 -26 66 0 22 -15 12 -33 -21 -11 -17
-17 -33 -15 -33 1 -1 -5 -11 -15 -22 -13 -14 -17 -28 -12 -44 4 -16 3 -19 -3
-9 -8 11 -12 9 -22 -9 -11 -21 -10 -22 6 -16 14 4 12 0 -6 -15 -14 -11 -18
-18 -10 -14 8 4 6 -1 -5 -10 -17 -14 -18 -17 -5 -25 9 -6 10 -10 3 -10 -14 0
-27 -23 -37 -64 -6 -25 -5 -28 11 -22 9 4 14 4 10 0 -4 -4 -1 -14 6 -22 8 -11
8 -14 0 -9 -19 12 -21 -15 -5 -56 8 -21 12 -41 8 -44 -3 -4 -6 2 -6 12 0 18
-1 18 -16 -1 -15 -18 -15 -18 -5 3 14 29 14 31 -9 43 -17 9 -19 7 -16 -24 1
-19 -1 -33 -6 -30 -4 3 -9 -10 -10 -28 0 -18 -3 -46 -5 -63 -6 -54 -5 -734 2
-745 3 -6 12 -7 18 -3 9 5 8 2 0 -8 -9 -12 -11 -52 -8 -152 6 -163 4 -153 33
-185 20 -23 22 -34 20 -126 l-2 -101 -3 90 c-4 84 -11 104 -36 105 -5 0 -7
-70 -5 -155 3 -85 2 -155 -2 -155 -4 0 -6 -16 -6 -35 1 -19 5 -35 9 -35 5 0 1
-7 -7 -16 -15 -14 -18 -37 -20 -129 0 -16 -5 -33 -11 -37 -7 -5 -6 -14 2 -27
11 -17 10 -19 -2 -15 -10 4 -16 0 -17 -12 -2 -28 -4 -37 -16 -67 -14 -33 -15
-40 -4 -33 13 8 9 -38 -6 -53 -11 -11 -12 -9 -7 15 5 26 4 26 -10 -6 -9 -19
-14 -43 -11 -52 2 -10 1 -16 -3 -14 -3 3 -14 -9 -24 -25 -9 -17 -12 -27 -7
-24 6 3 7 -1 4 -9 -3 -9 -1 -16 5 -16 6 0 11 5 11 12 0 6 3 9 6 5 11 -11 14
-66 4 -72 -6 -4 -7 1 -3 11 4 12 3 15 -5 10 -8 -5 -10 -1 -6 11 5 17 5 17 -9
1 -8 -10 -17 -15 -20 -11 -11 10 -8 25 3 18 11 -7 14 8 4 18 -10 9 -66 -83
-60 -98 5 -14 -24 -45 -43 -45 -6 0 -16 -12 -21 -26 -12 -31 -12 -37 -2 -30 5
3 9 -1 9 -9 0 -13 -4 -12 -19 2 -16 14 -18 14 -18 1 0 -20 24 -40 35 -30 5 4
5 1 1 -6 -7 -11 -11 -10 -25 2 -20 18 -41 22 -24 5 13 -13 6 -39 -9 -39 -6 0
-5 6 2 15 8 9 8 15 2 15 -6 0 -17 -12 -25 -27 -7 -16 -24 -45 -36 -65 -13 -21
-20 -38 -16 -38 3 0 -1 -7 -10 -16 -9 -9 -14 -23 -11 -30 3 -8 1 -14 -4 -14
-10 0 -34 -67 -32 -92 0 -10 -4 -20 -9 -24 -6 -4 -3 -14 7 -25 13 -14 14 -23
7 -30 -8 -8 -11 -6 -10 6 1 10 -4 20 -12 23 -10 3 -13 -2 -9 -22 3 -14 2 -26
-3 -26 -4 0 -6 -11 -4 -25 1 -14 -2 -25 -6 -25 -5 0 -9 -5 -9 -11 0 -5 4 -8 9
-5 14 9 42 -5 35 -16 -4 -6 -10 -5 -15 3 -6 11 -11 11 -20 2 -17 -17 -15 -251
2 -267 9 -8 10 -8 4 3 -5 9 -4 12 3 7 9 -5 9 -13 1 -27 -12 -24 -2 -62 14 -52
8 5 8 2 -1 -9 -10 -12 -9 -18 3 -28 8 -7 15 -18 15 -24 0 -6 -5 -4 -10 4 -13
21 -12 6 1 -24 7 -14 15 -23 20 -21 4 3 11 1 14 -5 4 -6 3 -10 -2 -9 -19 3
-21 -3 -12 -30 6 -16 17 -32 26 -35 11 -5 14 -2 9 11 -4 10 -3 14 1 9 4 -4 8
-19 8 -33 1 -23 0 -23 -12 -7 -19 26 -16 3 3 -24 8 -12 21 -19 27 -16 9 5 9 4
0 -6 -14 -15 -2 -45 26 -68 9 -8 10 -10 2 -7 -9 5 -8 -1 4 -19 14 -21 21 -24
31 -15 8 6 11 15 8 20 -3 5 2 6 11 3 14 -6 13 -9 -5 -21 -12 -8 -19 -21 -16
-29 3 -7 -4 -16 -17 -20 -45 -15 -557 -7 -722 10 -673 72 -1290 264 -1978 614
-114 58 -209 103 -212 100 -9 -9 -402 -812 -530 -1083 -538 -1139 -911 -2063
-1090 -2695 -63 -221 -68 -268 -62 -535 5 -252 24 -411 83 -724 101 -536 266
-1144 549 -2028 l58 -181 -101 -334 c-200 -659 -662 -2260 -662 -2293 0 -3 18
-12 40 -21 l39 -16 -51 -76 c-207 -310 -382 -533 -439 -563 -22 -11 -126 -40
-232 -64 -269 -62 -355 -95 -453 -173 -51 -40 -106 -127 -119 -189 l-7 -33
-1319 0 c-878 0 -1318 3 -1314 10 3 6 12 10 18 10 25 1 222 92 313 145 215
127 446 338 586 535 84 118 195 333 241 466 43 123 82 296 96 424 7 65 11
4540 13 14385 3 13669 2 14294 -15 14385 -100 533 -388 976 -822 1263 -196
130 -436 228 -695 284 l-125 28 -7575 1 c-4166 1 -7608 -2 -7648 -7z m24088
-27113 l0 -3153 -57 13 c-44 10 -166 14 -512 14 l-454 0 6 -122 c7 -151 33
-254 91 -373 69 -139 196 -279 315 -346 l41 -23 0 -118 c0 -118 0 -120 -30
-157 -46 -56 -70 -130 -70 -211 0 -137 71 -250 194 -310 l61 -29 -1002 -1
c-552 0 -1003 3 -1003 6 0 4 16 25 36 47 49 53 91 150 114 259 33 151 63 203
213 370 176 195 207 248 207 353 0 120 -68 246 -228 419 -51 55 -92 104 -92
108 0 5 10 28 21 51 21 41 21 44 10 302 -15 340 -39 780 -55 1030 l-14 200
115 210 c253 464 533 1048 681 1420 193 484 279 791 312 1109 24 237 138 465
717 1441 120 204 255 432 298 508 44 75 81 137 82 137 2 0 3 -1419 3 -3154z
m-3040 -3281 c23 -60 65 -165 92 -232 l51 -123 36 6 36 6 -1 -274 c-1 -305
-13 -386 -74 -511 -66 -131 -136 -190 -284 -238 -112 -36 -151 -67 -161 -129
l-7 -40 -159 0 c-99 0 -159 4 -159 10 0 6 5 10 10 10 22 0 50 84 50 150 0 167
-30 307 -103 470 -47 106 -51 121 -51 190 1 41 7 93 15 115 15 44 7 41 172 60
l59 7 162 246 c89 136 184 282 211 325 27 42 52 74 56 70 3 -5 25 -57 49 -118z"/>
<path d="M44015 33773 c-154 -82 -528 -453 -970 -958 -218 -250 -638 -756
-1000 -1205 -175 -217 -327 -402 -339 -412 -66 -54 -311 -146 -638 -238 -175
-50 -699 -181 -783 -196 -30 -6 35 -16 270 -40 502 -54 709 -82 1081 -149 341
-62 838 -142 1274 -206 118 -17 217 -33 219 -35 2 -2 -8 -5 -22 -5 -15 -1 -30
-2 -34 -3 -24 -5 -131 -31 -218 -51 -55 -13 -111 -26 -125 -29 -115 -24 -506
-139 -581 -170 -40 -17 -59 -50 -59 -102 0 -28 8 -44 34 -70 19 -19 45 -34 57
-34 13 -1 401 -33 861 -73 l838 -73 112 72 c62 40 301 191 531 335 229 145
417 266 417 270 0 8 -176 36 -309 49 -133 13 -512 13 -677 0 -158 -13 -435
-45 -566 -66 l-98 -16 -87 68 c-118 91 -307 281 -372 374 -117 165 -180 340
-168 466 31 333 439 1093 1182 2204 207 309 208 310 203 310 -2 -1 -16 -8 -33
-17z"/>
<path d="M23738 31421 c-127 -85 -215 -154 -341 -266 l-56 -51 72 4 c180 10
153 -5 373 202 191 179 196 185 168 191 -68 15 -81 10 -216 -80z"/>
<path d="M23871 31296 l-194 -194 69 -15 c195 -44 375 -79 379 -75 3 3 36 101
74 219 l69 214 -72 17 c-143 34 -107 52 -325 -166z"/>
<path d="M24305 31418 c-2 -7 -26 -100 -53 -206 -42 -161 -47 -193 -33 -189 9
2 84 23 167 47 l151 43 11 141 c6 77 9 143 6 145 -5 5 -186 30 -222 31 -12 0
-24 -6 -27 -12z"/>
<path d="M26161 31105 c-41 -35 -52 -76 -54 -200 l-2 -106 33 -30 c25 -22 42
-29 75 -29 88 0 115 45 124 205 l6 114 -35 35 c-46 46 -100 50 -147 11z"/>
<path d="M26911 31047 c-40 -20 -59 -65 -69 -163 -11 -114 -6 -147 28 -184 22
-24 36 -30 70 -30 52 0 93 21 109 57 21 45 35 217 21 258 -22 66 -96 95 -159
62z"/>
<path d="M27498 30993 c-43 -27 -57 -69 -63 -189 -6 -98 -5 -112 14 -141 26
-41 78 -57 128 -40 59 20 75 52 86 169 11 115 7 145 -26 184 -30 34 -99 43
-139 17z"/>
<path d="M28101 30948 c-48 -26 -62 -59 -73 -174 -10 -97 -9 -114 6 -146 34
-71 126 -86 180 -29 31 32 46 105 46 218 0 65 -3 76 -27 103 -32 36 -93 49
-132 28z"/>
<path d="M28678 30895 c-41 -23 -58 -66 -69 -168 -11 -107 -6 -137 27 -177 47
-55 139 -46 176 18 22 36 40 209 27 255 -19 69 -101 106 -161 72z"/>
<path d="M29273 30844 c-48 -24 -65 -71 -71 -199 -5 -109 -4 -111 22 -142 34
-41 85 -52 132 -30 52 25 65 54 76 175 9 97 8 113 -8 147 -11 24 -29 42 -50
51 -42 18 -61 17 -101 -2z"/>
<path d="M29870 30792 c-51 -25 -68 -69 -75 -192 -6 -95 -4 -108 14 -138 48
-75 153 -65 197 19 7 15 16 73 20 131 8 122 -5 160 -61 184 -44 18 -53 18 -95
-4z"/>
<path d="M30437 30726 c-30 -28 -43 -72 -52 -182 -5 -62 -3 -91 9 -117 34 -83
159 -88 200 -8 20 37 36 202 25 249 -12 54 -49 82 -108 82 -37 0 -54 -6 -74
-24z"/>
<path d="M31030 30673 c-22 -20 -33 -42 -40 -80 -15 -85 -16 -185 -1 -221 27
-64 115 -83 170 -36 35 29 47 66 56 180 10 128 -24 184 -112 184 -33 0 -50 -7
-73 -27z"/>
<path d="M31634 30631 c-41 -25 -52 -61 -60 -192 l-7 -108 36 -36 c39 -39 86
-46 136 -20 47 24 63 72 64 202 l2 114 -33 30 c-39 35 -91 39 -138 10z"/>
<path d="M32221 30574 c-36 -30 -47 -67 -56 -185 -6 -69 -4 -92 9 -117 22 -43
53 -62 101 -62 47 0 79 19 101 61 21 42 31 227 14 269 -26 62 -115 80 -169 34z"/>
<path d="M32828 30534 c-41 -22 -56 -60 -67 -168 -11 -113 -2 -157 41 -189 24
-18 34 -19 85 -11 76 12 91 37 105 178 9 91 8 108 -7 140 -29 61 -98 83 -157
50z"/>
<path d="M33423 30484 c-43 -21 -60 -63 -69 -166 -5 -72 -4 -88 7 -88 8 0 60
5 115 12 l102 11 6 36 c17 103 -1 169 -54 196 -37 19 -67 19 -107 -1z"/>
<path d="M38730 29973 c-23 -9 -60 -45 -76 -74 -7 -15 -16 -73 -20 -130 -6
-98 -5 -106 18 -139 13 -19 39 -40 60 -48 33 -13 41 -12 74 4 62 31 76 60 88
179 8 91 8 109 -7 140 -26 55 -88 86 -137 68z"/>
<path d="M39311 29912 c-58 -29 -71 -57 -83 -173 -9 -88 -8 -110 5 -141 41
-97 166 -99 212 -2 10 21 18 74 22 139 7 117 -1 139 -60 175 -39 24 -53 25
-96 2z"/>
<path d="M39930 29873 c-74 -23 -96 -60 -109 -187 -8 -82 -7 -105 6 -137 17
-42 65 -79 105 -79 33 0 90 39 106 73 20 41 34 204 22 242 -19 57 -86 102
-130 88z"/>
<path d="M31996 28999 c-6 -38 -76 -813 -76 -842 0 -16 6 -18 43 -12 75 12
239 55 351 92 128 42 180 82 217 166 34 75 34 221 1 289 -57 115 -336 301
-502 335 -26 5 -29 2 -34 -28z"/>
<path d="M27490 26692 l0 -2077 203 -764 204 -764 7 2818 c4 1549 5 2819 3
2821 -2 2 -82 11 -178 19 -96 8 -189 17 -206 19 l-33 5 0 -2077z"/>
<path d="M52925 25379 c-221 -26 -410 -118 -516 -251 -46 -59 -105 -174 -115
-225 -3 -18 -10 -33 -15 -33 -6 0 -32 11 -59 25 -159 80 -339 72 -535 -24
-237 -116 -444 -307 -693 -641 -63 -85 -128 -165 -143 -178 -45 -37 -127 -168
-150 -240 -61 -194 -22 -459 106 -731 35 -72 48 -92 61 -87 8 3 17 6 20 6 8 0
34 60 44 101 5 24 17 141 25 259 16 232 28 290 81 390 34 64 132 205 139 198
1 -1 28 -52 60 -113 69 -133 183 -309 275 -425 95 -119 279 -294 381 -363 90
-60 233 -131 284 -142 l30 -6 -29 23 c-180 141 -238 190 -326 274 -55 54 -115
115 -132 136 l-31 39 66 -45 c74 -53 173 -101 249 -123 34 -10 117 -17 235
-20 l182 -5 5 -37 c38 -248 41 -340 11 -446 -12 -43 -12 -63 -1 -130 9 -58 15
-74 20 -60 42 109 96 183 152 210 30 14 43 15 79 6 103 -26 178 -5 261 71 130
120 219 331 245 578 22 216 -19 446 -121 680 l-37 87 91 -4 c83 -5 94 -3 126
19 97 66 247 361 266 521 13 111 -50 344 -127 472 -48 80 -128 151 -191 170
-106 31 -252 10 -393 -56 -38 -18 -74 -35 -80 -37 -5 -3 1 7 13 21 57 61 211
116 384 136 l73 8 -100 0 c-55 0 -131 -3 -170 -8z"/>
<path d="M47720 21021 c-346 -105 -329 -91 -282 -238 17 -54 57 -186 88 -293
31 -107 58 -196 59 -198 1 -1 37 45 80 103 89 119 155 185 186 185 37 0 22
-89 -34 -204 -25 -53 -45 -96 -44 -96 2 0 20 23 41 50 53 69 74 80 99 49 38
-47 -4 -179 -108 -341 -45 -70 -46 -72 -14 -42 44 40 108 88 138 104 80 42 25
-139 -93 -303 -34 -48 -50 -77 -42 -80 7 -3 144 35 306 83 296 89 320 100 320
143 0 11 -75 270 -166 576 -171 574 -178 592 -228 590 -11 -1 -149 -40 -306
-88z"/>
<path d="M50845 18870 c-3 -5 -3 -15 1 -22 5 -7 2 -9 -8 -5 -20 7 -133 -107
-122 -124 4 -7 3 -9 -3 -6 -5 4 -22 -6 -37 -22 -22 -23 -24 -30 -12 -34 16 -6
40 16 29 26 -3 4 -4 7 -1 7 3 0 12 -8 19 -17 8 -9 9 -14 3 -10 -7 4 -17 0 -24
-8 -6 -7 -18 -11 -26 -8 -16 6 -40 -11 -56 -40 -8 -15 -7 -18 3 -12 8 5 10 4
5 -3 -4 -7 -2 -12 4 -12 6 0 8 -5 4 -11 -4 -8 -9 -7 -15 2 -8 11 -15 7 -34
-16 -14 -16 -28 -40 -31 -52 -4 -13 -9 -23 -13 -23 -4 0 -15 -16 -24 -36 -12
-24 -13 -33 -5 -29 7 4 5 0 -4 -8 -10 -8 -18 -21 -18 -29 0 -8 -6 -20 -12 -27
-11 -11 -10 -12 2 -6 11 6 10 3 -3 -12 -9 -11 -14 -23 -10 -26 3 -4 1 -7 -5
-7 -7 0 -11 -3 -10 -7 1 -5 -4 -19 -11 -32 -7 -12 -11 -32 -8 -42 3 -10 1 -17
-4 -13 -5 3 -10 0 -10 -5 -3 -21 -4 -26 -12 -38 -5 -7 -5 -17 -2 -23 3 -5 1
-10 -6 -10 -6 0 -9 -8 -6 -20 3 -11 1 -22 -3 -25 -10 -6 -41 -109 -44 -145 -1
-14 -6 -32 -11 -40 -5 -9 0 -8 13 4 12 11 22 14 22 8 0 -6 -11 -19 -26 -28
-14 -9 -23 -22 -20 -29 2 -7 -1 -18 -7 -25 -9 -10 -9 -11 3 -5 10 6 9 1 -4
-13 -12 -13 -17 -31 -14 -46 3 -14 2 -23 -2 -21 -5 3 -10 -2 -13 -10 -4 -10
-1 -12 10 -8 12 5 14 3 8 -7 -6 -10 -4 -12 8 -7 24 9 21 0 -4 -14 -17 -9 -20
-8 -14 3 3 7 -3 2 -14 -11 -22 -24 -29 -47 -11 -36 6 3 7 -1 4 -9 -3 -9 -11
-13 -17 -9 -6 4 -8 -2 -5 -15 4 -12 3 -20 -2 -17 -4 3 -10 -2 -14 -10 -3 -8
-1 -15 5 -15 5 0 -4 -13 -21 -30 -33 -32 -43 -62 -12 -39 9 7 6 1 -7 -14 -25
-28 -43 -38 -21 -12 8 10 9 15 2 15 -6 0 -15 -6 -19 -13 -4 -6 -33 -25 -63
-41 -30 -16 -64 -36 -74 -45 -11 -9 -16 -10 -12 -3 9 15 4 15 -29 -2 -15 -8
-38 -13 -51 -11 -21 2 -24 -1 -18 -19 6 -21 6 -21 -10 -1 -13 17 -15 18 -16 3
0 -9 -4 -19 -9 -22 -5 -3 -8 2 -7 12 1 13 -6 16 -29 14 -16 -1 -63 -4 -102 -5
-76 -2 -99 -22 -25 -22 22 1 38 -3 36 -7 -3 -5 -11 -5 -17 -2 -7 4 -8 3 -4 -2
5 -5 12 -9 15 -9 4 -1 18 -5 31 -9 19 -7 28 -4 42 15 10 13 19 20 19 15 0 -6
7 -1 16 10 14 18 15 18 4 -4 -6 -12 -15 -20 -19 -17 -5 3 -12 -2 -15 -11 -9
-23 -8 -24 22 -24 21 0 24 3 12 10 -12 7 -10 9 7 8 11 -1 19 -7 16 -14 -6 -15
67 -26 159 -23 86 3 119 9 113 20 -5 8 -37 5 -53 -5 -5 -3 -9 1 -9 8 0 8 6 12
14 9 7 -3 13 1 13 10 0 8 6 20 13 26 10 8 14 7 14 -4 0 -8 -4 -12 -9 -9 -4 3
-8 -2 -8 -10 0 -9 3 -15 8 -15 22 4 42 -2 37 -10 -3 -6 4 -8 17 -5 13 3 29 6
36 6 7 1 11 7 8 14 -3 7 4 16 15 19 10 4 17 10 15 14 -3 4 2 8 11 8 13 0 12
-4 -5 -18 -18 -14 -19 -18 -6 -23 10 -4 13 -2 8 6 -5 7 -2 9 8 6 8 -4 35 3 59
14 24 12 50 22 58 24 8 1 17 6 20 11 3 5 18 14 33 20 20 9 26 17 22 30 -5 14
-4 15 4 4 11 -15 32 -7 32 13 0 8 7 13 16 12 9 0 19 5 22 13 2 8 0 11 -5 8 -6
-4 -19 0 -29 9 -18 15 -18 15 1 6 26 -11 55 -10 52 3 -1 6 -6 9 -10 7 -5 -1
-6 2 -2 7 3 6 12 8 20 5 7 -3 23 0 36 6 17 10 19 14 8 21 -11 7 -11 9 2 9 9 0
20 7 23 16 9 23 7 31 -3 15 -6 -10 -10 -10 -16 -1 -4 7 1 13 14 17 16 4 20 12
17 34 -2 16 0 26 5 24 4 -3 8 3 8 12 0 10 5 40 11 66 13 52 9 67 -13 49 -10
-9 -14 -8 -14 3 0 7 3 14 6 13 27 -3 40 4 38 22 -1 11 -6 19 -12 16 -7 -2 -11
5 -10 17 2 27 -5 48 -14 42 -4 -2 -7 8 -7 24 0 19 5 27 18 28 16 2 17 0 3 -13
-15 -16 -11 -39 5 -29 5 3 12 0 16 -6 4 -8 3 -9 -4 -5 -16 10 -15 -7 1 -23 10
-11 9 -12 -2 -6 -10 5 -12 4 -7 -4 9 -14 27 -5 25 12 -1 7 1 25 6 41 5 18 4
36 -3 46 -6 10 -7 22 -1 31 7 12 9 12 10 -1 1 -8 7 14 14 50 8 36 11 76 8 89
-3 14 -2 22 3 18 6 -3 11 3 11 14 1 11 -2 17 -7 14 -5 -3 -7 3 -5 15 2 11 0
22 -5 25 -5 3 -8 20 -8 38 1 17 3 26 5 19 3 -6 10 -9 16 -5 7 4 7 0 -1 -9 -10
-12 -11 -22 -3 -36 6 -11 7 -23 3 -28 -4 -5 -3 -6 2 -1 6 4 11 15 12 25 1 9 4
31 7 47 13 65 20 111 21 143 0 17 4 32 8 32 5 0 8 5 8 11 0 5 -4 8 -9 5 -14
-9 -42 5 -35 16 4 6 10 5 15 -3 14 -23 31 4 34 54 2 25 6 51 10 58 6 8 4 10
-6 4 -12 -8 -12 -6 0 8 7 9 10 17 6 17 -4 0 -3 6 3 13 6 7 13 39 15 70 3 32 7
61 11 64 12 12 6 34 -6 27 -9 -6 -9 -3 0 9 8 9 15 32 17 52 4 36 1 43 -10 25z"/>
<path d="M54690 10170 l0 -5180 95 0 95 0 0 5180 0 5180 -95 0 -95 0 0 -5180z"/>
<path d="M56050 10170 l0 -5180 90 0 90 0 0 5133 0 5133 -48 47 c-42 41 -53
47 -90 47 l-42 0 0 -5180z"/>
</g>
</svg>
