<?xml version="1.0" standalone="no"?>
<!DOCTYPE svg PUBLIC "-//W3C//DTD SVG 20010904//EN"
 "http://www.w3.org/TR/2001/REC-SVG-20010904/DTD/svg10.dtd">
<svg version="1.0" xmlns="http://www.w3.org/2000/svg"
 width="600.000000pt" height="498.000000pt" viewBox="0 0 600.000000 498.000000"
 preserveAspectRatio="xMidYMid meet">
<metadata>
Created by potrace 1.16, written by Peter Selinger 2001-2019
</metadata>
<g transform="translate(0.000000,498.000000) scale(0.020000,-0.024900)"
fill="#000000" stroke="none">
<path d="M2435 16979 c-205 -26 -402 -124 -556 -278 -167 -167 -255 -356 -279
-600 -8 -74 -10 -1942 -8 -6186 3 -5629 5 -6085 20 -6145 54 -210 134 -356
268 -490 141 -140 322 -235 514 -269 40 -8 916 -11 2730 -11 2573 0 2674 1
2762 19 390 81 699 414 753 814 7 52 11 458 11 1198 l0 1119 1503 0 1502 0 61
108 c33 59 154 269 269 467 114 198 284 492 377 654 94 161 194 334 225 384
30 49 52 96 49 103 -5 12 -208 14 -1288 14 -706 0 -1291 0 -1300 0 -17 0 -18
101 -18 1970 l0 1970 1666 0 c1583 0 1666 1 1659 18 -6 15 -82 149 -215 377
-26 44 -91 158 -146 252 l-99 173 -2117 0 c-1866 0 -2118 -2 -2118 -15 0 -8
53 -106 119 -217 65 -112 136 -234 158 -273 39 -70 226 -392 566 -980 99 -170
180 -314 180 -320 0 -5 -91 -167 -202 -360 -112 -192 -273 -471 -359 -620 -86
-148 -217 -376 -293 -506 -75 -130 -144 -250 -153 -267 -14 -27 -16 -91 -16
-497 0 -320 3 -473 11 -487 8 -15 8 -19 0 -14 -8 5 -12 -109 -13 -406 -2 -227
-5 1590 -8 4037 l-5 4450 -22 82 c-62 227 -199 430 -379 559 -81 58 -228 126
-334 156 l-85 23 -2660 1 c-1466 1 -2691 -2 -2730 -7z m1111 -311 c54 -166
114 -246 222 -296 l57 -27 1282 -3 c1270 -2 1282 -2 1336 18 124 47 188 121
243 283 l36 107 476 0 c444 0 483 -2 561 -20 304 -73 539 -321 597 -629 12
-66 14 -905 12 -6136 l-3 -6060 -33 -95 c-47 -135 -101 -221 -201 -320 -136
-135 -292 -209 -477 -229 -54 -6 -1070 -9 -2584 -8 l-2495 2 -80 23 c-305 86
-519 302 -589 597 -12 49 -16 257 -21 1168 l-6 1107 264 0 265 0 23 38 c12 20
37 63 55 95 l33 57 -320 0 c-219 0 -319 3 -319 11 0 12 63 123 532 934 184
319 388 672 453 785 65 113 158 274 207 358 48 84 88 155 88 157 0 3 -289 6
-642 7 l-643 3 643 2 c353 2 642 5 642 7 0 2 -133 235 -296 518 -163 282 -342
594 -399 693 -57 99 -110 188 -119 198 -9 9 -16 22 -16 28 0 5 -44 85 -98 177
-169 287 -341 586 -348 607 l-6 20 14 -20 c15 -20 265 -451 377 -650 l56 -100
3 873 2 872 1353 0 1352 1 105 185 c58 102 106 190 108 195 2 5 -690 10 -1685
12 l-1688 2 1695 3 1695 2 112 193 c62 106 115 200 119 210 6 16 -98 17 -1804
17 l-1810 0 4 1668 c2 917 6 1701 9 1742 16 271 231 546 508 652 114 44 151
46 644 47 l471 1 28 -82z m5393 -9030 c132 -229 241 -422 241 -427 0 -13 -242
-13 -280 -1 -16 5 27 8 113 8 76 0 141 2 143 5 3 3 -92 175 -212 384 -249 433
-271 472 -257 458 6 -5 119 -198 252 -427z"/>
<path d="M5304 12263 c-119 -208 -225 -390 -235 -404 -10 -14 -16 -29 -12 -33
3 -3 325 -6 715 -6 531 0 708 3 708 12 0 6 -24 52 -53 102 -95 161 -162 276
-287 494 l-122 212 -248 0 -248 0 -218 -377z"/>
<path d="M6045 12623 c3 -10 108 -195 233 -411 l227 -392 563 2 564 3 112 195
c62 107 166 287 230 400 65 113 121 208 123 213 2 4 -460 7 -1027 7 -979 0
-1032 -1 -1025 -17z"/>
<path d="M8011 12457 c-57 -100 -160 -278 -228 -396 -69 -117 -127 -220 -130
-228 -5 -12 13 -14 113 -13 66 1 125 1 132 1 9 -1 12 -106 12 -491 l0 -490
225 0 225 0 0 900 0 900 -122 0 -123 -1 -104 -182z"/>
<path d="M3769 11466 c-49 -13 -89 -38 -131 -83 -77 -81 -97 -229 -45 -334 58
-119 171 -183 280 -159 28 6 61 17 73 25 19 12 24 12 39 -5 10 -11 22 -20 27
-20 4 0 8 41 8 90 0 55 -4 90 -10 90 -6 0 -13 -8 -17 -17 -34 -102 -79 -143
-158 -143 -55 0 -95 21 -121 64 -16 26 -20 56 -22 182 -4 173 5 224 50 266 25
23 39 28 80 28 87 0 143 -43 162 -123 12 -53 31 -24 34 53 3 81 -7 103 -35 77
-17 -14 -22 -14 -73 3 -64 22 -79 23 -141 6z"/>
<path d="M5429 11453 c-20 -51 -181 -498 -186 -515 -4 -13 -16 -18 -39 -18
-19 0 -34 -4 -34 -10 0 -6 37 -10 90 -10 92 0 126 16 46 22 l-43 3 26 70 27
70 90 3 90 3 22 -69 c12 -38 22 -71 22 -75 0 -4 -18 -7 -40 -7 -22 0 -40 -4
-40 -10 0 -6 52 -10 135 -10 83 0 135 4 135 10 0 6 -15 10 -34 10 -23 0 -36 6
-41 18 -4 9 -44 126 -90 259 -46 133 -89 251 -95 263 -15 28 -29 25 -41 -7z
m20 -253 c17 -52 31 -98 31 -103 0 -4 -34 -7 -75 -7 -41 0 -75 3 -75 8 0 21
74 212 80 205 4 -4 22 -51 39 -103z"/>
<path d="M4060 11450 c0 -5 18 -10 40 -10 l40 0 0 -260 0 -260 -40 0 c-22 0
-40 -4 -40 -10 0 -6 52 -10 135 -10 83 0 135 4 135 10 0 6 -18 10 -40 10 l-40
0 0 136 0 137 47 -7 c75 -10 95 -40 107 -159 12 -108 47 -141 146 -135 58 3
81 24 29 26 -17 0 -36 5 -42 11 -5 5 -13 42 -17 83 -9 98 -29 134 -90 162
l-49 23 41 12 c104 32 142 102 102 186 -26 56 -66 65 -279 65 -117 0 -185 -4
-185 -10z m339 -36 c16 -21 21 -41 21 -91 0 -55 -4 -67 -25 -88 -20 -21 -34
-25 -85 -25 l-60 0 0 115 0 115 64 0 c58 0 67 -3 85 -26z"/>
<path d="M4630 11450 c0 -5 18 -10 40 -10 l39 0 3 -260 3 -260 -42 0 c-24 0
-43 -4 -43 -10 0 -6 86 -10 239 -10 l238 0 7 38 c12 72 7 142 -9 142 -9 0 -15
-9 -15 -22 0 -13 -9 -42 -20 -66 -25 -56 -63 -72 -170 -72 l-80 0 0 125 c0
141 3 146 65 125 35 -11 50 -33 69 -93 3 -10 10 -15 16 -12 6 4 10 55 10 121
0 90 -3 114 -14 114 -7 0 -16 -13 -19 -30 -9 -45 -40 -70 -87 -70 l-40 0 0
120 0 120 75 0 c106 0 141 -17 168 -80 11 -27 25 -50 29 -50 4 0 8 34 8 75 l0
75 -235 0 c-150 0 -235 -4 -235 -10z"/>
<path d="M5666 11429 c-3 -17 -6 -58 -6 -90 0 -46 3 -59 15 -59 8 0 15 9 15
20 0 72 65 140 134 140 l36 0 0 -260 0 -260 -45 0 c-25 0 -45 -4 -45 -10 0 -6
53 -10 140 -10 87 0 140 4 140 10 0 6 -18 10 -40 10 l-40 0 0 260 0 260 33 0
c66 0 102 -40 133 -147 2 -7 8 -13 14 -13 11 0 14 137 4 164 -5 14 -36 16
-244 16 l-237 0 -7 -31z"/>
<path d="M6190 11450 c0 -5 18 -10 40 -10 l40 0 0 -260 0 -260 -40 0 c-22 0
-40 -4 -40 -10 0 -6 87 -10 240 -10 l240 0 0 90 c0 50 -4 90 -9 90 -5 0 -17
-26 -27 -57 -27 -83 -60 -103 -170 -103 l-84 0 0 130 c0 144 -1 143 68 119 29
-10 47 -37 54 -83 2 -11 9 -21 16 -24 9 -3 12 25 12 117 0 76 -4 121 -10 121
-6 0 -13 -14 -17 -30 -7 -39 -47 -70 -89 -70 l-34 0 0 121 0 121 89 -4 c78 -3
93 -6 115 -27 15 -14 31 -42 38 -63 15 -50 38 -50 38 0 0 20 -3 54 -6 75 l-7
37 -228 0 c-146 0 -229 -4 -229 -10z"/>
<path d="M7910 10425 l0 -405 -1155 0 c-635 0 -1155 -3 -1155 -7 0 -5 13 -28
29 -52 17 -25 28 -48 25 -52 -8 -13 -1064 -11 -1064 2 0 6 12 31 26 55 15 25
24 47 22 49 -3 3 -516 4 -1141 3 l-1136 -3 110 -190 c61 -104 137 -235 169
-290 32 -55 89 -154 127 -220 38 -66 141 -244 228 -395 87 -151 164 -283 170
-293 11 -16 20 -4 77 95 124 217 631 1094 686 1186 60 101 83 127 31 35 -77
-138 -694 -1209 -740 -1286 -16 -26 -29 -49 -29 -52 0 -3 143 -5 318 -5 l317
0 67 118 c36 64 106 187 156 272 49 85 158 274 242 420 83 146 158 272 166
280 12 12 14 6 14 -45 0 -32 3 -55 7 -52 3 4 6 37 5 75 -1 61 2 74 39 140 l40
73 555 -1 c547 -1 555 -1 574 -22 10 -11 23 -33 29 -48 5 -15 9 -146 10 -290
0 -144 3 -265 6 -268 3 -3 5 108 5 246 0 139 3 252 8 252 4 0 78 -124 166
-275 87 -151 164 -282 171 -292 11 -14 18 -7 55 58 23 41 73 126 110 189 36
63 122 211 189 328 68 116 125 212 128 212 2 0 -10 -26 -28 -57 -60 -107 -381
-668 -410 -715 l-29 -48 182 -312 c100 -172 238 -412 308 -533 172 -299 416
-721 508 -880 42 -71 85 -147 96 -167 l21 -38 573 0 572 0 0 681 0 682 -177
306 c-354 613 -427 739 -530 921 -58 102 -107 188 -110 193 -2 4 -2 7 1 7 2 0
72 -116 154 -257 163 -281 569 -983 621 -1075 18 -32 34 -58 37 -58 2 0 4 497
4 1105 l0 1105 -225 0 -225 0 0 -405z"/>
<path d="M4072 10590 c9 -6 33 -37 52 -69 30 -49 36 -68 36 -114 0 -44 -3 -56
-17 -60 -10 -3 14 -5 52 -5 43 0 60 3 45 7 -22 6 -25 13 -28 58 -2 43 3 61 33
116 20 36 44 68 53 70 9 3 -3 5 -28 5 -25 0 -37 -2 -27 -5 22 -6 22 -6 -10
-64 l-26 -49 -29 47 c-33 57 -33 60 -10 66 9 3 -12 5 -48 6 -47 0 -60 -2 -48
-9z"/>
<path d="M4354 10591 c-41 -18 -74 -69 -74 -117 0 -82 46 -134 117 -134 66 1
113 55 113 131 0 83 -86 150 -156 120z m77 -20 c22 -18 24 -27 24 -106 0 -74
-3 -89 -19 -101 -11 -8 -29 -14 -41 -14 -12 0 -30 6 -41 14 -16 12 -19 27 -19
101 0 79 2 88 24 106 13 10 29 19 36 19 7 0 23 -9 36 -19z"/>
<path d="M4518 10593 c21 -4 22 -9 22 -102 0 -84 3 -102 21 -125 17 -22 28
-26 70 -26 40 0 55 5 74 25 23 22 25 31 25 125 l0 101 38 -3 37 -3 3 -113 c3
-109 2 -113 -20 -122 -17 -6 -7 -9 42 -8 36 0 57 2 48 5 -15 4 -18 16 -18 64
0 51 3 59 19 59 26 0 38 -18 46 -68 8 -47 30 -66 73 -59 26 4 26 4 5 12 -18 6
-23 15 -23 42 0 23 -8 42 -25 59 l-25 25 25 11 c45 20 44 81 -2 99 -13 5 -81
8 -151 8 -70 -1 -119 -3 -109 -6 15 -4 17 -18 17 -107 0 -113 -10 -136 -62
-136 -47 0 -58 26 -58 138 0 87 2 101 18 105 9 3 -12 5 -48 4 -36 0 -55 -2
-42 -4z"/>
<path d="M5190 10593 c-24 -10 -39 -36 -40 -69 0 -37 18 -55 82 -78 54 -20 69
-47 42 -77 -28 -31 -73 -22 -101 20 l-23 34 0 -39 0 -39 59 -3 c54 -3 61 -1
80 24 43 55 18 115 -58 137 -59 17 -73 39 -43 69 21 21 24 22 50 8 14 -9 32
-26 38 -38 13 -27 24 -18 24 19 0 20 -5 28 -17 27 -10 0 -31 2 -48 5 -16 4
-37 3 -45 0z"/>
<path d="M5338 10593 c21 -4 22 -8 22 -123 0 -115 -1 -119 -22 -123 -13 -2 9
-4 47 -4 39 0 60 2 48 4 -21 4 -23 10 -23 59 l0 54 41 0 c65 0 99 24 99 71 0
49 -31 64 -139 66 -53 1 -86 -1 -73 -4z"/>
<path d="M5606 10591 c-6 -9 -86 -230 -86 -237 0 -1 -8 -5 -17 -7 -10 -3 2 -5
27 -4 25 0 35 2 23 4 -27 5 -26 2 -12 42 10 28 15 31 55 31 28 0 44 -4 44 -12
0 -7 3 -23 6 -35 4 -15 1 -22 -13 -26 -10 -3 11 -5 47 -5 43 -1 58 2 45 8 -14
5 -31 40 -59 121 -41 120 -50 137 -60 120z"/>
<path d="M5784 10582 c-56 -35 -79 -114 -49 -172 31 -59 108 -90 155 -60 9 5
19 5 27 -2 10 -8 13 -2 13 31 0 22 -4 41 -10 41 -5 0 -10 -7 -10 -15 0 -49
-86 -73 -114 -33 -18 25 -22 141 -7 181 18 46 90 41 113 -8 16 -35 28 -31 28
9 0 28 -4 34 -22 35 -13 0 -39 3 -58 6 -25 4 -44 0 -66 -13z"/>
<path d="M5963 10593 c15 -4 17 -19 17 -123 0 -104 -2 -119 -17 -123 -10 -3
30 -5 90 -6 l107 -1 -1 43 0 42 -16 -32 c-16 -32 -37 -43 -85 -43 -27 0 -28 1
-28 60 0 69 15 78 49 33 l20 -28 0 60 c0 59 0 59 -15 33 -8 -16 -23 -28 -34
-28 -18 0 -20 7 -20 55 0 52 2 55 24 55 39 0 77 -19 83 -40 9 -32 25 -23 21
13 l-3 32 -105 2 c-58 0 -97 -1 -87 -4z"/>
<path d="M3192 8582 c9 -23 304 -531 308 -532 3 0 38 58 79 128 185 318 221
381 227 396 6 14 -25 16 -306 16 -171 0 -310 -4 -308 -8z"/>
<path d="M3063 8387 c-250 -432 -1112 -1926 -1142 -1979 l-33 -58 319 0 318 1
191 332 c105 183 309 537 454 787 144 250 275 477 291 503 16 27 29 52 29 56
0 7 -303 537 -312 547 -2 2 -54 -83 -115 -189z"/>
<path d="M3890 7713 c-35 -7 -65 -15 -67 -17 -3 -2 20 -7 49 -11 63 -8 88 -28
88 -67 0 -16 3 -27 8 -25 8 5 27 -12 30 -28 10 -41 243 -59 427 -33 71 10 134
23 139 28 6 6 -2 6 -23 0 -18 -5 -135 -11 -259 -14 -151 -3 -202 -2 -153 4
120 14 112 30 -15 30 -116 0 -134 6 -134 45 0 33 31 55 91 65 60 9 89 19 89
29 0 11 -205 7 -270 -6z"/>
<path d="M6538 7582 c4 -141 -11 -361 -27 -391 -7 -12 -26 -22 -51 -26 -29 -5
-51 -18 -75 -43 -62 -68 -72 -86 -71 -124 2 -43 2 -43 -17 -23 -13 12 -17 12
-26 1 -9 -11 -8 -14 6 -12 14 1 19 -8 21 -41 2 -27 -1 -43 -8 -43 -6 0 -8 -4
-5 -10 4 -6 -11 -11 -37 -12 -61 -2 -70 -2 -93 7 -16 5 -17 5 -5 -4 13 -9 13
-11 0 -11 -13 0 -13 -2 0 -9 8 -6 26 -8 40 -5 14 2 39 0 55 -5 l30 -9 -30 -2
c-16 -1 -38 -2 -47 -1 -26 3 -22 -15 12 -65 16 -25 32 -55 36 -68 3 -12 17
-29 32 -38 30 -17 117 -35 93 -19 -11 7 -10 10 5 13 10 2 32 -4 47 -15 15 -10
34 -17 41 -14 8 3 22 0 32 -7 11 -7 40 -15 66 -18 37 -4 54 -13 77 -37 16 -17
31 -31 34 -31 3 0 -3 24 -14 53 -43 117 -61 420 -35 585 9 55 16 144 16 198 0
86 -6 132 -37 287 -3 15 -12 27 -20 27 -8 0 -11 5 -8 13 4 6 -1 3 -9 -7 -16
-19 -16 -19 -16 1 0 12 -3 24 -7 26 -5 3 -6 -52 -5 -121z"/>
<path d="M7253 7158 c13 -24 127 -221 252 -438 126 -217 251 -434 279 -482
l50 -88 263 0 263 0 0 525 0 525 -566 0 -566 0 25 -42z"/>
<path d="M3971 7025 c-2 -33 -5 -64 -6 -70 -2 -5 -3 -22 -4 -37 -1 -23 -6 -27
-43 -33 -24 -4 -53 -13 -65 -21 -15 -9 -34 -11 -64 -6 -41 7 -44 10 -50 45 -8
53 -19 58 -19 8 0 -24 -10 -63 -26 -94 l-25 -52 35 38 c32 34 39 38 78 35 l43
-3 -1 -77 c-2 -87 -3 -85 85 -94 55 -6 114 2 197 27 37 11 43 10 61 -8 11 -11
39 -23 61 -27 49 -7 52 -18 21 -77 -11 -22 -18 -46 -16 -52 2 -7 16 13 30 43
35 75 49 90 84 90 16 0 37 6 46 13 16 11 14 15 -18 51 -38 43 -42 43 -47 5 -3
-25 -34 -66 -43 -57 -3 2 4 27 15 56 21 54 15 68 -21 57 -16 -5 -20 -3 -17 6
3 8 15 13 26 11 24 -3 28 13 12 38 -6 9 -13 11 -17 5 -5 -5 -21 -11 -38 -12
-58 -4 -85 -23 -85 -57 0 -49 -12 -60 -39 -35 -20 19 -23 29 -19 71 6 59 -13
78 -79 78 l-42 0 -4 98 c-2 77 -4 85 -6 37z"/>
<path d="M12913 12633 c3 -5 80 -138 172 -298 325 -564 294 -516 330 -514 11
1 98 1 193 0 l172 -1 0 -347 1 -348 183 -315 c101 -173 188 -314 193 -312 4 1
90 145 191 320 101 174 218 378 261 452 86 148 184 318 400 692 l142 247 -7
215 -7 216 -1114 0 c-613 0 -1112 -3 -1110 -7z"/>
<path d="M15290 12417 l0 -222 61 -105 c34 -58 153 -265 266 -460 363 -629
428 -740 433 -740 3 0 52 82 109 183 58 100 227 394 376 652 404 699 466 805
497 863 l30 52 -886 0 -886 0 0 -223z"/>
<path d="M17073 12628 c-6 -7 -81 -137 -168 -288 -87 -151 -197 -342 -245
-425 -80 -137 -285 -492 -331 -573 -11 -18 -54 -93 -96 -165 -42 -73 -98 -170
-124 -216 -27 -46 -49 -87 -49 -92 0 -4 47 -88 104 -186 57 -98 205 -355 330
-570 464 -806 685 -1188 896 -1553 320 -553 579 -1007 590 -1032 5 -13 18 -36
29 -53 l21 -30 0 1248 0 1247 1243 0 1242 0 98 173 c102 179 215 377 406 707
104 179 284 491 628 1086 l133 231 0 252 0 251 -2349 0 c-1867 0 -2351 -3
-2358 -12z"/>
<path d="M21930 12388 c0 -174 3 -248 10 -238 6 8 45 75 86 148 42 72 79 132
83 132 7 0 43 -61 281 -475 70 -121 345 -598 612 -1060 266 -462 499 -866 517
-897 l32 -58 1060 -2 1059 -3 3 -1438 2 -1437 -1734 0 c-1646 0 -1733 -1
-1727 -17 6 -17 5 -17 -8 0 -11 15 -31 17 -145 17 l-131 0 0 -455 0 -455 390
0 c215 0 390 3 390 6 0 4 -71 128 -157 278 -86 149 -192 334 -236 411 -44 77
-81 143 -84 148 -2 4 -2 7 0 7 5 0 83 -133 350 -595 l145 -250 2316 -3 c1274
-1 2316 1 2316 6 0 4 -27 54 -61 112 -34 58 -113 195 -177 305 -63 110 -342
594 -620 1075 -278 481 -514 891 -525 910 l-19 35 164 285 c235 408 330 573
543 940 104 179 198 343 211 365 l22 40 -160 275 c-88 151 -239 412 -335 580
-97 168 -275 476 -396 685 -263 455 -441 763 -476 827 l-26 48 -1787 0 -1788
0 0 -252z"/>
<path d="M8660 11712 l0 -872 506 0 c278 0 503 3 501 8 -20 33 -848 1468 -910
1577 -44 77 -84 144 -88 150 -5 5 -9 -373 -9 -863z"/>
<path d="M22017 12258 l-87 -151 0 -1084 0 -1083 806 0 806 0 -20 33 c-68 114
-106 179 -239 412 -137 239 -330 573 -877 1520 -112 193 -222 385 -246 428
-24 42 -47 77 -50 77 -3 0 -45 -68 -93 -152z"/>
<path d="M21746 12058 c-167 -291 -458 -796 -529 -918 -49 -85 -134 -234 -190
-330 -55 -96 -190 -329 -299 -517 -109 -188 -198 -345 -198 -348 0 -3 281 -5
625 -5 l625 0 0 1080 c0 594 -2 1080 -5 1080 -2 0 -15 -19 -29 -42z"/>
<path d="M27460 11679 c0 -267 12 -619 22 -619 11 0 -2 762 -13 775 -5 5 -9
-61 -9 -156z"/>
<path d="M10830 11434 c9 -3 35 -35 58 -73 34 -55 42 -77 42 -115 0 -39 -4
-48 -22 -56 -17 -6 -4 -9 47 -8 39 0 60 3 48 5 -21 4 -23 10 -23 65 0 48 6 72
31 119 17 32 39 60 48 62 9 3 -4 5 -29 5 -25 0 -37 -2 -27 -5 9 -2 17 -8 17
-11 0 -12 -45 -92 -52 -92 -6 0 -58 83 -58 94 0 2 8 7 18 9 9 3 -12 5 -48 5
-36 0 -58 -2 -50 -4z"/>
<path d="M11103 11421 c-109 -68 -66 -241 60 -241 73 0 132 90 107 164 -25 77
-107 115 -167 77z m102 -13 c5 -5 12 -45 14 -89 4 -95 -12 -129 -59 -129 -51
0 -61 21 -58 123 3 86 4 92 28 104 25 13 56 9 75 -9z"/>
<path d="M11277 11433 c20 -4 21 -11 25 -109 3 -97 5 -107 27 -125 28 -23 108
-26 137 -5 16 12 19 29 22 125 l4 111 39 0 39 0 0 -119 c0 -116 -1 -120 -22
-124 -13 -2 6 -4 42 -4 36 -1 57 1 48 4 -15 4 -18 16 -18 64 0 52 2 59 19 59
25 0 51 -36 51 -72 0 -14 7 -34 16 -42 17 -18 74 -22 74 -6 0 6 -9 10 -20 10
-17 0 -20 7 -20 39 0 31 -6 44 -26 60 l-26 20 26 12 c47 22 47 81 1 99 -34 13
-289 12 -257 0 20 -9 22 -16 22 -95 0 -112 -16 -145 -72 -145 -45 0 -58 31
-58 142 0 92 1 97 23 101 12 2 -9 4 -48 4 -38 0 -60 -2 -48 -4z"/>
<path d="M11900 11398 l1 -43 15 27 c16 30 49 52 64 43 6 -3 10 -55 10 -116 0
-104 -1 -110 -22 -119 -17 -6 -6 -9 42 -8 36 0 57 2 48 5 -16 4 -18 19 -18
124 0 65 3 119 6 119 16 0 45 -24 58 -48 l15 -27 1 43 0 42 -110 0 -110 0 0
-42z"/>
<path d="M12277 11433 c-11 -11 -8 -85 3 -78 6 3 10 14 10 24 0 21 15 36 48
45 22 7 22 7 22 -113 0 -116 -1 -120 -22 -124 -13 -2 9 -4 47 -4 39 0 60 2 48
4 -22 4 -23 8 -23 124 0 120 0 120 23 114 25 -8 47 -32 47 -52 0 -7 5 -13 11
-13 8 0 9 11 5 31 -3 17 -6 35 -6 40 0 10 -203 12 -213 2z"/>
<path d="M12538 11433 c21 -4 22 -8 22 -123 0 -115 -1 -119 -22 -123 -13 -2
25 -5 83 -6 l107 -1 7 36 c3 20 2 41 -3 46 -6 6 -12 -3 -15 -22 -7 -32 -36
-50 -83 -50 l-24 0 0 119 c0 116 1 120 23 124 12 2 -9 4 -48 4 -38 0 -60 -2
-47 -4z"/>
<path d="M12763 11433 c15 -4 17 -19 17 -123 0 -104 -2 -119 -17 -123 -10 -3
30 -5 90 -6 l107 -1 -1 48 0 47 -15 -37 c-16 -37 -35 -48 -86 -48 -27 0 -28 1
-28 60 0 33 4 60 9 60 23 0 41 -14 41 -31 0 -10 5 -19 10 -19 6 0 10 24 9 53
0 50 -1 51 -16 30 -8 -13 -24 -23 -34 -23 -16 0 -19 8 -19 55 0 52 2 55 24 55
39 0 77 -19 83 -40 9 -32 25 -23 21 13 l-3 32 -105 2 c-58 0 -97 -1 -87 -4z"/>
<path d="M13780 10470 c0 -348 2 -631 4 -629 4 4 240 412 317 549 28 49 44 89
40 95 -5 5 -86 145 -180 309 -94 165 -174 302 -176 305 -3 2 -5 -281 -5 -629z"/>
<path d="M27114 10830 l-221 -5 2 -35 c1 -19 3 -159 4 -311 l2 -276 -69 -119
c-38 -65 -180 -312 -317 -549 -136 -236 -313 -542 -392 -678 -78 -136 -143
-250 -143 -252 0 -3 416 -5 925 -5 509 0 925 2 925 3 0 2 -89 159 -199 349
-109 189 -206 359 -215 376 l-17 32 323 1 c178 1 334 4 348 8 l25 7 -4 269
c-3 217 -6 272 -18 280 -11 9 -14 82 -13 442 0 421 0 433 -20 453 -19 19 -31
20 -362 18 -189 -1 -442 -5 -564 -8z m849 -457 c4 -219 7 -518 7 -664 l0 -266
-302 -6 -303 -6 -19 22 c-10 12 -90 147 -178 300 l-160 278 -8 352 c-4 194 -5
358 -3 364 4 10 79 13 307 16 165 1 380 3 477 5 l176 2 6 -397z"/>
<path d="M8660 9953 c0 -482 2 -874 4 -872 2 2 42 72 88 154 47 83 144 251
215 375 379 656 696 1206 700 1213 2 4 -223 7 -501 7 l-506 0 0 -877z"/>
<path d="M19043 9542 c9 -4 35 -37 57 -72 32 -52 40 -75 40 -112 0 -35 -4 -48
-14 -48 -8 0 -18 -4 -21 -10 -4 -6 17 -10 54 -10 34 0 61 4 61 10 0 6 -7 10
-15 10 -12 0 -15 13 -15 58 0 46 6 70 29 113 17 29 38 57 48 60 11 5 1 7 -27
7 -25 0 -35 -3 -24 -5 21 -4 21 -4 -5 -53 -14 -28 -28 -50 -31 -50 -5 0 -60
87 -60 95 0 2 8 6 18 8 9 3 -12 5 -48 5 -36 0 -57 -3 -47 -6z"/>
<path d="M19289 9511 c-35 -35 -39 -44 -39 -91 0 -47 4 -56 39 -91 29 -29 47
-39 71 -39 69 0 120 57 120 132 -1 52 -16 83 -56 109 -48 31 -90 25 -135 -20z
m115 16 c23 -17 34 -129 16 -181 -21 -66 -103 -60 -116 9 -11 62 0 156 21 171
24 18 56 18 79 1z"/>
<path d="M19487 9543 c20 -4 21 -11 25 -109 3 -97 5 -107 27 -125 35 -29 105
-26 136 6 23 22 25 31 25 125 l0 100 40 0 40 0 0 -115 c0 -96 -3 -115 -15
-115 -8 0 -15 -4 -15 -10 0 -5 25 -10 55 -10 30 0 55 5 55 10 0 6 -7 10 -15
10 -12 0 -15 13 -15 55 0 52 1 55 25 55 27 0 45 -30 45 -75 0 -32 41 -59 72
-49 l23 7 -23 8 c-17 7 -22 16 -22 44 0 47 -39 85 -86 85 l-34 0 0 50 c0 48 1
50 29 50 39 0 55 -22 48 -65 -4 -26 -2 -35 8 -35 21 0 45 29 45 55 0 46 -31
55 -180 54 -74 -1 -125 -4 -112 -6 21 -4 22 -9 22 -99 0 -87 -2 -97 -25 -119
-29 -30 -58 -32 -85 -5 -17 17 -20 33 -20 119 0 95 1 100 23 104 12 2 -9 4
-48 4 -38 0 -60 -2 -48 -4z"/>
<path d="M20108 9510 c-2 -22 0 -40 4 -40 5 0 8 7 8 15 0 8 9 24 20 35 11 11
27 20 35 20 12 0 15 -19 15 -115 0 -96 -3 -115 -15 -115 -8 0 -15 -4 -15 -10
0 -6 27 -10 60 -10 33 0 60 4 60 10 0 6 -9 10 -20 10 -19 0 -20 7 -20 115 0
105 2 115 18 115 20 0 52 -29 52 -48 0 -6 5 -14 10 -17 6 -4 10 10 10 34 l0
41 -109 0 -109 0 -4 -40z"/>
<path d="M20480 9510 c0 -22 5 -40 10 -40 6 0 10 8 10 18 0 23 30 52 53 52 15
0 17 -14 17 -115 0 -108 -1 -115 -20 -115 -11 0 -20 -4 -20 -10 0 -6 27 -10
60 -10 33 0 60 4 60 10 0 6 -7 10 -15 10 -12 0 -15 19 -15 115 0 96 3 115 15
115 8 0 24 -9 35 -20 11 -11 20 -27 20 -35 0 -8 5 -15 11 -15 8 0 9 11 5 31
-3 17 -6 35 -6 40 0 5 -49 9 -110 9 l-110 0 0 -40z"/>
<path d="M20748 9543 c21 -4 22 -8 22 -119 0 -95 -3 -114 -15 -114 -8 0 -15
-4 -15 -10 0 -6 40 -10 99 -10 l99 0 6 31 c9 44 8 59 -4 59 -5 0 -10 -8 -10
-18 0 -29 -33 -52 -73 -52 l-37 0 0 114 c0 111 1 115 23 119 12 2 -9 4 -48 4
-38 0 -60 -2 -47 -4z"/>
<path d="M20968 9543 c21 -4 22 -8 22 -119 0 -95 -3 -114 -15 -114 -8 0 -15
-4 -15 -10 0 -6 42 -10 105 -10 l105 0 0 48 -1 47 -17 -35 c-16 -32 -21 -35
-65 -38 l-47 -3 0 56 c0 48 3 56 18 53 9 -2 21 -13 27 -26 16 -36 25 -26 25
28 0 28 -4 50 -10 50 -5 0 -10 -6 -10 -14 0 -13 -20 -26 -41 -26 -5 0 -9 25
-9 55 l0 55 33 0 c36 0 58 -13 75 -45 10 -17 11 -15 12 18 l0 37 -107 -1 c-60
-1 -98 -4 -85 -6z"/>
<path d="M22525 9543 c12 -2 35 -30 58 -68 30 -51 37 -74 37 -114 0 -39 -4
-51 -15 -51 -8 0 -15 -4 -15 -10 0 -6 27 -10 60 -10 33 0 60 4 60 10 0 6 -9
10 -20 10 -17 0 -20 7 -20 52 0 63 52 175 85 181 11 2 -2 4 -30 4 -27 0 -40
-2 -27 -4 12 -2 22 -6 22 -7 0 -6 -52 -96 -55 -96 -2 0 -17 22 -34 49 -30 49
-30 50 -8 54 12 2 -9 4 -48 4 -38 0 -61 -2 -50 -4z"/>
<path d="M22790 9528 c-66 -45 -77 -138 -22 -199 57 -63 159 -40 190 43 43
114 -72 221 -168 156z m102 -5 c25 -23 27 -177 1 -205 -20 -22 -51 -23 -81 -2
-20 14 -22 24 -22 104 0 80 2 90 22 104 29 21 57 20 80 -1z"/>
<path d="M22978 9543 c21 -4 22 -9 22 -108 0 -112 7 -129 56 -141 35 -9 95 2
113 21 11 11 17 43 19 120 l4 105 34 0 34 0 0 -115 c0 -96 -3 -115 -15 -115
-8 0 -15 -4 -15 -10 0 -6 27 -10 60 -10 33 0 60 4 60 10 0 6 -9 10 -20 10 -18
0 -20 7 -20 55 0 51 2 55 23 55 32 0 47 -18 47 -55 0 -17 6 -39 13 -48 15 -20
63 -32 71 -18 4 6 1 11 -7 11 -9 0 -16 15 -20 42 -4 28 -14 50 -29 62 -17 14
-19 20 -9 24 29 10 52 43 46 65 -13 43 -31 47 -179 46 -78 -1 -131 -4 -118 -6
21 -4 22 -9 22 -102 0 -115 -10 -135 -65 -135 -21 0 -40 6 -46 15 -5 7 -9 60
-9 116 0 88 2 102 18 106 9 3 -12 5 -48 4 -36 0 -55 -2 -42 -4z"/>
<path d="M23597 9543 c-11 -10 -8 -73 3 -73 6 0 10 8 10 18 0 23 30 52 53 52
15 0 17 -14 17 -115 0 -108 -1 -115 -20 -115 -11 0 -20 -4 -20 -10 0 -6 27
-10 60 -10 33 0 60 4 60 10 0 6 -7 10 -15 10 -12 0 -15 19 -15 115 0 96 3 115
15 115 8 0 24 -9 35 -20 11 -11 20 -27 20 -35 0 -8 5 -15 11 -15 8 0 9 11 5
31 -3 17 -6 35 -6 40 0 10 -203 12 -213 2z"/>
<path d="M23848 9543 c21 -4 22 -8 22 -119 0 -107 -1 -114 -20 -114 -11 0 -20
-4 -20 -10 0 -6 27 -10 60 -10 33 0 60 4 60 10 0 6 -7 10 -15 10 -12 0 -15 19
-15 114 0 101 2 115 18 119 9 3 -12 5 -48 4 -36 0 -55 -2 -42 -4z"/>
<path d="M23968 9510 c-2 -22 0 -40 4 -40 5 0 8 7 8 15 0 8 9 24 20 35 11 11
27 20 35 20 12 0 15 -19 15 -115 0 -96 -3 -115 -15 -115 -8 0 -15 -4 -15 -10
0 -6 27 -10 60 -10 33 0 60 4 60 10 0 6 -9 10 -20 10 -19 0 -20 7 -20 115 0
107 1 115 19 115 23 0 51 -25 51 -45 0 -8 5 -17 10 -20 6 -4 10 10 10 34 l0
41 -109 0 -109 0 -4 -40z"/>
<path d="M24228 9543 c21 -4 22 -8 22 -119 0 -95 -3 -114 -15 -114 -8 0 -15
-4 -15 -10 0 -6 40 -10 100 -10 111 0 114 2 108 62 -3 27 -5 30 -12 13 -17
-45 -24 -50 -70 -53 l-46 -3 0 115 c0 111 1 115 23 119 12 2 -9 4 -48 4 -38 0
-60 -2 -47 -4z"/>
<path d="M24453 9543 c15 -4 17 -18 17 -119 0 -95 -3 -114 -15 -114 -8 0 -15
-4 -15 -10 0 -6 41 -10 104 -10 l104 0 6 31 c8 42 8 49 -4 49 -5 0 -10 -6 -10
-14 0 -28 -30 -46 -76 -46 l-44 0 0 55 c0 48 2 55 20 55 11 0 26 -12 34 -27
15 -27 15 -27 15 32 1 55 0 58 -12 35 -7 -14 -23 -26 -35 -28 -20 -3 -22 0
-22 52 l0 56 40 0 c38 0 46 -5 75 -45 13 -19 14 -18 15 18 l0 37 -107 -1 c-60
-1 -100 -3 -90 -6z"/>
<path d="M25980 8585 c0 -3 194 -342 432 -753 237 -411 474 -821 526 -912 52
-91 150 -259 217 -375 67 -115 145 -252 174 -302 l53 -93 88 0 87 0 109 188
c59 103 166 288 238 412 71 124 212 368 314 543 107 186 181 324 178 333 -3 8
-72 128 -152 267 -81 139 -157 270 -169 292 -13 22 -70 121 -128 220 l-104
180 -932 3 c-512 1 -931 0 -931 -3z"/>
<path d="M28356 7508 c-30 -51 -218 -378 -419 -725 l-365 -633 424 0 424 0 0
725 c0 399 -2 725 -5 725 -2 0 -29 -42 -59 -92z"/>
<path d="M12581 7117 c-14 -37 -43 -216 -37 -225 3 -5 17 -12 31 -14 21 -4 26
-1 31 21 4 14 15 58 26 96 11 39 22 79 24 90 4 16 -3 24 -31 38 -35 17 -36 17
-44 -6z"/>
<path d="M17815 7122 c-16 -9 -31 -17 -32 -18 -2 0 8 -36 21 -80 14 -43 27
-96 31 -116 5 -35 7 -36 37 -28 17 5 32 11 35 13 3 4 -32 195 -43 230 -7 21
-11 21 -49 -1z"/>
<path d="M13335 7039 c-143 -47 -218 -59 -326 -54 -76 4 -100 2 -92 -6 6 -6 9
-18 6 -25 -3 -8 -1 -14 5 -14 6 0 12 6 15 13 2 6 7 9 11 6 9 -8 28 -210 22
-235 -6 -24 13 -38 40 -27 13 5 13 7 2 14 -9 6 -13 31 -13 78 0 38 -3 72 -7
76 -4 4 -3 16 3 26 5 11 6 19 2 19 -4 0 2 6 13 14 18 14 18 15 1 22 -15 5 -16
9 -5 15 20 13 48 11 48 -5 0 -14 9 -14 78 -1 23 4 42 11 42 15 0 4 21 8 48 8
28 1 51 8 58 17 6 8 21 15 33 15 11 0 21 5 21 10 0 6 11 10 25 10 14 0 25 4
25 9 0 5 8 12 18 14 12 3 12 5 2 5 -8 1 -42 -8 -75 -19z"/>
<path d="M18155 7050 c-49 -3 -79 -7 -65 -8 14 -1 30 -10 36 -20 13 -19 107
-48 124 -37 6 4 9 14 5 24 -5 12 -3 13 5 5 9 -9 9 -18 -1 -35 -12 -24 -12 -24
9 -5 21 18 22 18 29 0 4 -11 21 -39 38 -64 17 -25 71 -114 120 -197 48 -84 89
-153 91 -153 1 0 28 44 60 98 142 244 176 302 181 302 3 0 -6 -19 -20 -42
-145 -253 -207 -366 -207 -375 0 -6 49 -96 108 -200 l109 -188 1501 -3 1502
-2 0 455 0 455 -1469 0 c-1166 0 -1470 -3 -1474 -12 -4 -10 -6 -10 -6 0 -1 9
-66 12 -293 10 -161 -1 -333 -5 -383 -8z"/>
<path d="M17066 7041 c-4 -5 7 -17 23 -25 23 -12 31 -13 34 -3 3 7 6 4 6 -6 1
-10 6 -15 11 -12 6 4 17 1 25 -5 8 -6 19 -9 25 -5 5 3 10 1 10 -5 0 -6 10 -8
26 -4 19 5 25 4 20 -5 -5 -7 4 -11 26 -11 18 0 47 -4 65 -9 24 -7 35 -6 44 5
13 16 45 19 54 4 3 -5 1 -10 -4 -10 -15 0 -14 -27 0 -32 16 -5 12 -200 -4
-210 -8 -5 -7 -9 5 -13 31 -12 38 5 38 88 1 72 27 227 29 170 1 -34 18 -28 19
6 l1 30 -117 -2 c-104 -2 -127 1 -207 26 -49 16 -97 31 -106 34 -9 2 -20 0
-23 -6z"/>
</g>
</svg>
