<?xml version="1.0" standalone="no"?>
<!DOCTYPE svg PUBLIC "-//W3C//DTD SVG 20010904//EN"
 "http://www.w3.org/TR/2001/REC-SVG-20010904/DTD/svg10.dtd">
<svg version="1.0" xmlns="http://www.w3.org/2000/svg"
 width="600.000000pt" height="498.000000pt" viewBox="0 0 600.000000 498.000000"
 preserveAspectRatio="xMidYMid meet">
<metadata>
Created by potrace 1.16, written by Peter Selinger 2001-2019
</metadata>
<g transform="translate(0.000000,498.000000) scale(0.030000,-0.024900)"
fill="#000000" stroke="none">
<path d="M10930 18123 c-142 -11 -311 -58 -445 -126 -338 -169 -563 -457 -662
-847 -16 -59 -17 -238 -20 -1973 l-3 -1907 58 -78 c100 -131 253 -401 293
-517 12 -34 15 256 19 2095 5 2004 7 2139 23 2195 98 332 319 553 637 637 85
23 87 23 860 23 868 0 800 6 883 -74 73 -68 80 -94 87 -296 5 -153 9 -187 27
-225 29 -62 73 -106 135 -135 l53 -25 1131 0 1132 0 53 28 c114 59 149 144
149 357 0 102 4 154 16 188 21 63 82 130 144 156 50 21 55 22 684 21 379 0
656 -4 688 -10 85 -16 146 -39 253 -94 175 -90 320 -255 396 -450 64 -165 59
447 59 -7247 0 -4913 -3 -7021 -11 -7076 -25 -186 -110 -361 -239 -493 -125
-128 -262 -206 -436 -246 -76 -18 -187 -19 -3010 -18 -2718 1 -2936 3 -3015
18 -324 66 -581 304 -672 624 l-22 77 -5 1850 c-3 1018 -9 1832 -13 1810 -17
-85 -91 -377 -133 -525 -49 -168 -182 -570 -214 -646 -20 -46 -20 -64 -17
-1363 4 -1451 1 -1374 67 -1573 63 -188 157 -337 304 -483 183 -182 387 -290
641 -342 86 -17 229 -18 3075 -18 3250 0 3027 -4 3214 57 189 61 340 154 487
298 175 173 283 369 346 630 17 72 18 376 21 7330 2 6639 1 7263 -13 7355 -86
531 -518 955 -1041 1024 -72 9 -5842 23 -5964 14z"/>
<path d="M3160 16829 c-374 -43 -701 -201 -965 -464 -570 -571 -631 -1462
-145 -2110 73 -96 217 -242 315 -316 181 -138 404 -238 640 -289 127 -28 402
-38 540 -21 235 30 481 124 686 262 74 49 94 58 140 62 l54 3 -57 2 c-53 2
-61 -1 -135 -52 -165 -113 -380 -203 -593 -247 -98 -20 -142 -24 -300 -23
-160 0 -202 4 -311 27 -366 77 -658 248 -903 530 -271 313 -414 751 -377 1155
42 460 257 858 612 1133 290 225 606 333 979 333 198 0 311 -18 490 -77 557
-183 953 -635 1073 -1222 31 -155 31 -452 -1 -600 -31 -146 -76 -274 -144
-412 l-59 -122 17 -55 c10 -31 19 -54 22 -52 2 3 -4 28 -13 55 l-17 51 50 98
c90 174 145 342 173 527 18 122 13 359 -10 496 -144 837 -923 1424 -1761 1328z"/>
<path d="M13760 15815 l0 -155 35 0 34 0 3 76 c3 85 15 102 61 90 26 -6 27 -8
27 -86 l0 -80 36 0 36 0 -4 91 c-3 85 -5 92 -31 115 -30 25 -75 31 -108 14
-18 -10 -19 -7 -19 40 l0 50 -35 0 -35 0 0 -155z"/>
<path d="M13534 15941 c-81 -37 -111 -114 -75 -195 26 -60 69 -86 141 -86 37
0 66 6 88 20 38 24 40 33 8 53 -20 14 -26 14 -35 3 -31 -37 -107 -23 -135 25
-48 82 38 169 124 124 30 -15 33 -15 51 1 18 16 18 18 3 36 -17 18 -73 38
-109 38 -11 0 -38 -9 -61 -19z"/>
<path d="M11070 15879 c-52 -38 -96 -76 -98 -83 -3 -15 188 -156 212 -156 36
0 11 32 -69 90 -47 34 -85 63 -85 65 0 2 38 31 85 65 80 58 98 82 64 87 -8 1
-57 -29 -109 -68z"/>
<path d="M16892 15934 c-28 -20 -31 -83 -4 -107 29 -26 77 -22 101 9 27 35 26
59 -4 89 -28 29 -61 32 -93 9z"/>
<path d="M14310 15905 c0 -16 -6 -25 -15 -25 -9 0 -15 -9 -15 -25 0 -16 6 -25
15 -25 12 0 15 -14 15 -65 0 -80 19 -105 79 -105 22 0 43 5 46 10 11 17 -5 49
-21 43 -26 -10 -44 17 -44 68 0 48 1 49 30 49 25 0 30 4 30 25 0 21 -5 25 -30
25 -25 0 -30 4 -30 25 0 21 -5 25 -30 25 -25 0 -30 -4 -30 -25z"/>
<path d="M14073 15879 c-36 -11 -39 -17 -20 -42 10 -15 17 -16 45 -6 27 9 37
8 57 -5 33 -22 23 -36 -25 -36 -76 0 -110 -30 -96 -84 10 -39 105 -63 134 -34
9 9 12 9 12 0 0 -7 13 -12 30 -12 l30 0 0 88 c-1 94 -9 114 -54 132 -32 12
-69 12 -113 -1z"/>
<path d="M16887 15722 c-25 -28 -22 -87 5 -106 32 -23 65 -20 93 9 30 30 31
54 4 89 -25 32 -77 36 -102 8z"/>
<path d="M16903 15528 c-49 -24 -45 -106 6 -127 84 -36 138 90 55 128 -29 13
-32 13 -61 -1z"/>
<path d="M2660 15379 c-117 -49 -136 -216 -32 -285 53 -36 105 -40 160 -12 63
31 92 76 92 143 0 57 -24 102 -72 138 -31 23 -111 32 -148 16z"/>
<path d="M3316 15380 c-89 -27 -132 -140 -86 -230 49 -96 171 -116 250 -42
129 124 9 323 -164 272z"/>
<path d="M3990 15383 c-59 -22 -110 -95 -110 -158 0 -155 210 -219 298 -91 53
78 28 188 -53 233 -38 22 -100 29 -135 16z"/>
<path d="M12740 15359 c109 -9 2562 -9 2655 1 39 4 -562 7 -1335 7 -773 0
-1367 -3 -1320 -8z"/>
<path d="M7160 14572 l0 -269 105 -2 105 -2 0 271 0 271 -22 -7 c-12 -3 -49
-6 -83 -6 -34 0 -71 3 -83 6 l-22 7 0 -269z"/>
<path d="M11682 13569 c-86 -11 -162 -48 -232 -115 -74 -70 -107 -135 -121
-239 -11 -72 -10 -86 8 -137 l20 -58 -21 0 c-74 0 -118 -107 -82 -195 36 -86
164 -101 223 -25 7 8 13 36 13 63 0 43 -2 47 -23 47 -64 0 -93 115 -42 165 30
31 52 31 83 3 l24 -23 81 88 c75 80 85 88 120 87 42 0 50 16 12 26 -23 6 -20
11 68 115 59 69 99 109 111 109 34 0 119 -98 139 -159 18 -57 22 -239 8 -355
-6 -50 -5 -56 6 -40 27 38 38 100 37 219 -2 141 -17 204 -69 288 -41 64 -87
96 -175 120 -76 21 -115 24 -188 16z"/>
<path d="M11335 12568 c-177 -16 -245 -64 -313 -220 -23 -53 -42 -102 -42
-109 0 -22 147 -167 208 -206 76 -49 234 -109 338 -129 124 -23 288 -15 406
20 106 31 209 78 263 119 59 45 155 140 155 153 0 14 -104 171 -138 207 -50
53 -103 76 -218 95 l-109 18 -14 -41 c-24 -73 -70 -105 -148 -105 -67 0 -100
24 -172 124 -53 73 -66 86 -89 85 -15 -1 -72 -6 -127 -11z"/>
<path d="M8638 12335 c-2 -1 -199 -5 -438 -9 -2495 -37 -2998 -45 -3045 -52
-118 -17 -247 -75 -348 -156 -76 -61 -122 -118 -177 -221 -114 -212 -104 -496
25 -702 94 -149 208 -237 395 -306 62 -23 77 -24 350 -25 157 -1 465 2 685 6
220 5 749 13 1175 19 1583 23 1820 29 1905 51 141 36 268 114 358 219 285 335
213 833 -154 1071 -136 88 -247 111 -525 109 -112 -1 -204 -2 -206 -4z m-113
-409 c61 -28 104 -81 122 -150 22 -85 -1 -160 -70 -223 -145 -133 -377 -31
-377 167 0 170 171 278 325 206z m-2637 -28 c88 -22 162 -122 162 -218 0 -134
-125 -244 -255 -227 -124 17 -199 103 -200 227 0 103 55 181 154 216 46 17 80
17 139 2z m831 -220 c39 -192 192 -350 360 -373 163 -22 339 88 425 267 22 48
46 86 51 84 6 -2 10 -32 9 -67 -2 -176 -177 -354 -384 -391 -133 -23 -282 32
-385 144 -81 87 -118 169 -123 274 -4 76 6 124 26 124 5 0 14 -28 21 -62z"/>
<path d="M4142 12112 c-104 -322 -95 -729 24 -1089 18 -55 120 -273 128 -273
3 0 -7 26 -21 58 -56 128 -111 303 -145 467 -20 96 -23 140 -23 345 0 239 5
292 47 469 10 45 18 85 15 87 -2 2 -13 -27 -25 -64z"/>
<path d="M10302 12108 c15 -68 15 -586 -1 -713 -51 -420 -171 -732 -368 -961
-33 -38 -76 -85 -96 -104 l-37 -35 0 -687 c0 -379 -2 -688 -4 -688 -2 0 -54
18 -116 40 -266 95 -657 176 -1057 220 -543 60 -1425 66 -2078 14 -1087 -86
-1860 -330 -2157 -681 -15 -18 -24 -34 -20 -37 26 -16 332 -125 507 -181 116
-36 217 -69 225 -71 8 -3 15 -5 15 -4 0 0 23 -6 50 -14 483 -141 1065 -245
1660 -298 194 -17 982 -17 1190 0 338 28 760 84 955 126 36 8 92 20 125 26
199 39 706 174 794 212 24 10 60 23 80 27 32 8 182 65 384 146 37 15 67 32 67
37 0 26 -80 114 -161 179 l-89 71 0 1029 0 1028 24 53 c58 130 100 292 128
488 18 133 18 638 -1 743 -8 42 -17 77 -21 77 -4 0 -4 -19 2 -42z"/>
<path d="M1614 10940 c-50 -20 -54 -40 -54 -257 l0 -203 -25 0 c-14 0 -25 2
-25 5 0 21 -83 372 -92 389 -18 34 -40 45 -89 46 -55 0 -94 -26 -104 -69 -4
-17 11 -104 40 -231 25 -112 44 -204 42 -205 -1 -1 -12 -7 -24 -14 -20 -10
-27 -1 -127 172 -106 184 -126 207 -177 207 -28 0 -75 -26 -93 -52 -31 -44
-20 -74 108 -297 l124 -217 -18 -54 c-26 -74 -26 -198 -1 -279 33 -107 101
-193 203 -257 24 -15 46 -32 50 -38 4 -6 8 -8 8 -4 0 4 21 1 48 -7 117 -36
307 -5 384 62 9 9 22 12 30 7 7 -4 10 -4 6 1 -4 4 13 31 39 59 68 75 113 177
120 271 l6 76 116 96 c164 137 171 145 171 194 0 56 -51 109 -103 109 -36 0
-53 -12 -211 -144 -26 -21 -48 -37 -49 -35 -2 2 -13 18 -25 35 -12 17 -44 49
-72 70 l-50 38 0 234 0 234 -34 34 c-35 35 -75 43 -122 24z"/>
<path d="M5749 9864 c-64 -169 -12 -338 131 -422 l45 -27 1335 0 c1307 0 1336
0 1375 20 97 48 156 140 163 257 5 87 -13 184 -32 169 -13 -11 -232 -36 -451
-52 -231 -17 -1506 -17 -1760 -1 -337 21 -697 58 -772 78 -18 5 -25 1 -34 -22z"/>
<path d="M15706 9839 c-37 -10 -66 -36 -82 -76 -19 -45 -17 -77 6 -123 38 -75
33 -74 496 -75 l412 0 25 26 c50 49 61 121 27 176 -35 58 -58 66 -198 70 -325
8 -660 9 -686 2z"/>
<path d="M16340 9368 c-26 -10 -394 -16 -490 -8 -53 4 -55 3 -58 -22 -7 -56 5
-58 292 -58 242 0 264 1 279 18 17 19 23 67 10 75 -5 3 -19 0 -33 -5z"/>
<path d="M2235 8679 c-238 -16 -439 -185 -496 -419 -21 -84 -16 -233 9 -307
49 -142 160 -271 284 -332 71 -35 178 -61 253 -61 106 0 255 47 331 105 17 13
35 21 39 17 5 -4 5 -2 2 4 -7 12 35 57 46 49 4 -3 5 -2 3 1 -3 3 12 27 31 52
48 62 80 135 98 219 19 87 19 125 0 215 -25 118 -74 209 -159 294 -121 121
-266 175 -441 163z"/>
<path d="M4299 8396 c-217 -90 -397 -303 -444 -524 -21 -102 -19 -259 4 -350
53 -204 207 -393 396 -487 72 -35 240 -84 251 -72 3 3 -4 65 -15 139 -58 373
-121 1020 -121 1241 0 42 -3 77 -7 77 -5 -1 -33 -11 -64 -24z"/>
<path d="M10415 8208 c-29 -457 -131 -1273 -164 -1311 -10 -12 -2 -12 51 0 74
17 188 68 255 114 49 34 183 165 183 179 0 5 15 35 34 67 59 99 88 202 94 334
6 147 -13 238 -76 369 -39 82 -58 108 -141 190 -63 63 -117 107 -157 128 -34
18 -64 32 -67 32 -3 0 -8 -46 -12 -102z"/>
<path d="M11615 7972 c-76 -26 -138 -66 -188 -121 -58 -66 -86 -126 -99 -220
-9 -67 -8 -83 9 -133 16 -47 17 -58 6 -58 -8 0 -27 -7 -43 -15 -84 -44 -78
-194 9 -240 17 -8 50 -15 74 -15 36 0 51 6 76 29 17 16 31 37 32 48 0 10 2 30
3 45 1 22 -3 28 -25 33 -47 11 -69 40 -69 94 0 80 60 121 110 76 l22 -20 73
78 c70 75 73 77 119 77 53 0 61 21 11 30 l-28 5 69 80 c38 44 82 95 97 114 26
31 29 32 57 21 49 -20 107 -87 131 -148 19 -52 21 -71 17 -232 -4 -148 -3
-170 8 -145 45 107 41 330 -8 437 -31 67 -80 123 -128 148 -96 49 -244 63
-335 32z"/>
<path d="M7098 7479 c-137 -20 -304 -89 -426 -176 -410 -293 -545 -840 -317
-1293 117 -233 325 -414 575 -500 201 -69 466 -69 662 -1 275 96 499 305 608
568 61 146 73 212 74 393 1 202 -20 295 -105 464 -121 243 -331 422 -594 510
-127 41 -331 57 -477 35z m277 -274 c74 -9 196 -51 271 -96 75 -44 209 -178
253 -252 18 -31 47 -96 65 -144 29 -84 31 -95 31 -238 0 -167 -13 -223 -83
-358 -38 -74 -149 -201 -217 -247 -64 -44 -172 -95 -245 -115 -98 -28 -281
-26 -385 3 -309 89 -522 353 -542 672 -20 331 188 640 503 746 79 26 196 44
254 38 19 -1 62 -6 95 -9z"/>
<path d="M11360 6988 c-135 -11 -188 -29 -248 -83 -40 -36 -58 -64 -91 -140
-22 -53 -41 -101 -41 -106 0 -18 112 -138 168 -180 65 -49 202 -114 298 -140
303 -83 646 1 847 209 l59 59 -18 34 c-9 19 -39 66 -65 106 -75 110 -127 143
-265 167 -122 22 -120 22 -127 -19 -16 -98 -123 -152 -221 -111 -24 10 -53 42
-100 107 -36 50 -66 96 -66 101 0 4 -6 7 -12 7 -7 -1 -60 -6 -118 -11z"/>
<path d="M11020 6103 c-210 -32 -377 -170 -451 -373 -32 -86 -35 -274 -5 -360
23 -69 94 -185 138 -226 188 -177 466 -213 680 -87 315 185 369 623 108 883
-36 36 -93 80 -127 98 -106 56 -241 81 -343 65z"/>
<path d="M15772 4870 c-90 -5 -95 -6 -122 -37 -56 -63 -48 -165 17 -209 39
-26 143 -33 563 -36 265 -2 287 -1 317 17 61 36 81 135 40 196 -39 58 -55 61
-331 66 -138 2 -282 4 -321 6 -38 1 -112 0 -163 -3z"/>
<path d="M15790 4369 c0 -58 6 -59 294 -59 242 0 264 1 279 18 10 10 17 31 17
47 0 26 -2 27 -37 21 -71 -12 -398 -18 -475 -9 l-78 9 0 -27z"/>
<path d="M11821 4244 c-249 -67 -391 -325 -317 -577 l12 -42 -93 -153 c-67
-110 -93 -162 -93 -185 0 -89 119 -139 177 -74 11 12 48 68 82 124 l62 102 62
-33 c34 -19 78 -39 97 -45 l35 -11 70 -213 c78 -235 96 -267 158 -267 45 0 99
37 110 77 8 26 -1 62 -53 218 -52 153 -60 189 -49 196 8 5 17 9 21 9 4 0 53
-77 109 -170 56 -94 111 -177 122 -185 69 -48 179 25 163 107 -3 14 -50 100
-106 191 -55 90 -100 171 -100 179 0 9 7 21 15 28 12 10 36 -6 142 -102 71
-62 143 -126 161 -141 60 -48 140 -29 169 41 26 61 10 83 -192 263 l-185 164
0 55 c0 298 -291 521 -579 444z"/>
<path d="M3825 3526 c-68 -30 -109 -115 -126 -265 -24 -206 33 -446 153 -648
31 -52 130 -161 189 -208 23 -18 30 -47 88 -340 81 -418 77 -390 48 -330 -14
28 -47 85 -74 127 -26 43 -68 113 -93 155 -55 97 -181 225 -279 283 -143 85
-301 121 -371 85 -37 -19 -50 -43 -50 -95 0 -141 225 -343 446 -401 79 -20
231 -28 286 -14 23 6 30 1 55 -37 71 -105 108 -192 138 -328 l23 -105 1 105
c3 233 25 388 75 518 l22 57 71 7 c120 12 226 66 354 180 84 74 122 141 120
212 -2 90 -52 131 -161 130 -260 -2 -461 -233 -411 -471 11 -53 11 -62 -9
-108 -41 -96 -61 -203 -67 -370 l-6 -160 -43 240 c-23 132 -61 334 -84 449
l-42 209 32 74 c133 318 143 608 30 834 -38 74 -122 159 -191 192 -75 35 -90
38 -124 23z"/>
<path d="M2650 1380 c-63 -3 3285 -6 7440 -6 4155 0 7492 3 7415 7 -169 8
-14692 8 -14855 -1z"/>
</g>
</svg>
