<?xml version="1.0" standalone="no"?>
<!DOCTYPE svg PUBLIC "-//W3C//DTD SVG 20010904//EN"
 "http://www.w3.org/TR/2001/REC-SVG-20010904/DTD/svg10.dtd">
<svg version="1.0" xmlns="http://www.w3.org/2000/svg"
 width="1349.000000pt" height="567.000000pt" viewBox="0 0 1349.000000 567.000000"
 preserveAspectRatio="xMidYMid meet">
<metadata>
Created by potrace 1.16, written by Peter Selinger 2001-2019
</metadata>
<g transform="translate(0.000000,567.000000) scale(0.100000,-0.100000)"
fill="#000000" stroke="none">
<path d="M0 5260 l0 -410 6745 0 6745 0 0 410 0 410 -6745 0 -6745 0 0 -410z
m466 124 c13 -3 22 -9 20 -13 -5 -7 55 -6 133 3 40 5 60 3 77 -9 13 -8 24 -11
24 -6 0 5 13 12 29 16 38 8 103 -4 94 -18 -4 -6 0 -8 10 -4 9 3 17 1 19 -4 2
-6 14 -1 27 10 19 17 34 20 88 17 35 -2 67 -7 70 -10 9 -8 12 -30 14 -81 2
-50 7 -59 25 -44 16 13 20 54 4 44 -5 -3 -10 -3 -11 2 0 4 -2 18 -3 31 -3 28
13 43 45 40 13 -1 38 2 55 6 23 5 37 2 57 -14 35 -28 36 -68 2 -100 -22 -21
-26 -48 -5 -35 5 3 12 -6 16 -21 5 -20 1 -31 -20 -51 -14 -13 -31 -21 -36 -18
-5 3 -69 8 -141 10 -72 2 -144 7 -160 10 -16 4 -34 3 -41 -1 -18 -12 -121 -14
-133 -4 -6 5 -16 5 -24 1 -7 -5 -34 -4 -59 1 -26 4 -59 6 -74 2 -19 -4 -28 -1
-29 8 -1 7 -2 22 -3 33 0 11 -7 20 -13 19 -7 -1 -22 -2 -32 -2 -15 -2 -21 -11
-23 -34 -3 -31 -6 -33 -45 -39 -54 -7 -57 0 -48 134 8 105 23 144 53 132 8 -3
25 -8 38 -11z m1774 4 c29 -7 40 -20 40 -47 0 -15 -5 -32 -12 -39 -9 -9 -7
-13 5 -18 41 -15 8 -138 -41 -151 -32 -8 -94 4 -103 19 -7 10 -15 9 -41 -5
-49 -26 -169 -24 -153 3 13 20 -15 18 -32 -3 -17 -22 -41 -25 -88 -14 -11 3
-24 6 -28 6 -4 1 -2 7 5 15 7 8 17 11 23 8 56 -34 121 32 111 112 -3 21 -6 39
-8 40 -2 1 -15 11 -30 23 -32 24 -93 21 -83 -5 4 -12 3 -13 -9 -3 -30 25 -42
-100 -15 -151 7 -13 6 -18 -5 -18 -8 0 -17 6 -20 13 -3 8 -8 7 -16 -6 -17 -27
-68 -49 -93 -41 -12 5 -25 8 -28 9 -17 1 -59 42 -59 57 0 9 -4 20 -10 23 -5 3
-10 1 -10 -4 0 -6 -9 -11 -20 -11 -13 0 -22 -9 -26 -27 -9 -40 -29 -53 -66
-42 -36 10 -46 22 -43 52 1 12 3 32 4 45 0 13 4 21 9 19 4 -3 7 23 7 56 l0 62
74 3 c42 2 79 -2 84 -7 8 -8 16 -7 26 3 21 18 93 26 117 13 10 -6 24 -17 30
-26 10 -13 15 -13 40 4 46 30 94 36 126 17 15 -9 28 -19 28 -23 0 -3 22 -4 48
-1 36 3 57 -1 86 -17 34 -19 37 -20 32 -4 -16 51 59 82 144 61z m5960 -88 c0
-6 33 -10 80 -10 89 0 93 -4 60 -57 -18 -29 -25 -33 -65 -33 -25 0 -45 -4 -45
-10 0 -5 25 -10 55 -10 30 0 55 -4 55 -10 0 -6 -30 -10 -71 -10 l-71 0 6 30
c6 30 -19 100 -36 100 -4 0 -8 5 -8 10 0 6 9 10 20 10 11 0 20 -4 20 -10z
m-980 -89 c0 -36 -4 -71 -8 -78 -14 -23 -57 -25 -83 -4 -27 22 -18 42 11 23
27 -17 47 -15 54 4 5 13 1 15 -17 10 -35 -8 -67 19 -67 58 0 43 16 56 67 54
l43 -1 0 -66z"/>
<path d="M400 5270 c0 -49 -1 -93 -2 -97 -2 -5 10 -9 26 -11 l29 -4 -7 56 c-4
34 -2 65 6 80 12 29 19 31 35 15 14 -14 6 -39 -12 -39 -18 0 -28 -32 -13 -42
24 -14 47 -8 64 17 14 22 15 29 3 57 -10 24 -10 33 -1 36 14 4 6 22 -9 22 -6
0 -7 -5 -4 -10 6 -10 -21 -9 -40 1 -5 3 -25 6 -42 7 l-33 2 0 -90z"/>
<path d="M640 5340 c-8 -5 -29 -7 -46 -4 l-30 5 2 -51 c2 -29 -1 -63 -6 -76
-13 -32 11 -44 90 -44 53 0 61 2 58 18 -2 10 -12 17 -25 16 -12 0 -20 3 -18 6
3 4 -13 6 -35 4 -38 -2 -52 7 -30 21 6 3 10 0 10 -7 0 -10 3 -9 11 2 7 10 12
11 15 4 3 -6 16 -9 30 -6 19 3 24 10 22 26 -2 17 -9 21 -41 20 -30 -1 -37 2
-33 13 3 8 6 16 6 17 0 2 12 1 26 -2 26 -5 44 9 44 36 0 14 -29 16 -50 2z"/>
<path d="M763 5340 c-19 -8 -21 -17 -22 -89 0 -44 3 -82 7 -85 5 -3 18 -3 30
1 17 4 20 9 12 23 -14 26 -12 40 4 34 8 -3 12 -13 9 -23 -6 -25 41 -49 62 -31
21 18 19 25 -12 39 l-28 13 34 14 c28 12 32 18 27 39 -15 61 -66 88 -123 65z"/>
<path d="M986 5342 c-2 -4 -19 -7 -38 -6 l-33 2 0 -82 0 -81 70 0 c60 0 70 3
73 19 3 15 0 18 -17 13 -12 -3 -21 -1 -21 5 0 5 -4 6 -10 3 -5 -3 -10 -2 -10
2 0 5 10 13 23 18 37 17 28 40 -15 38 -31 -1 -38 2 -38 18 0 20 15 26 25 9 7
-12 45 10 45 26 0 19 -44 32 -54 16z"/>
<path d="M1120 5325 c-17 -21 -4 -34 30 -30 17 2 30 0 30 -5 0 -6 -4 -10 -9
-10 -5 0 -27 -18 -51 -40 -34 -32 -40 -42 -31 -57 7 -14 24 -18 75 -20 39 0
66 3 66 9 0 6 -7 8 -15 4 -8 -3 -19 2 -24 12 -5 9 -12 16 -15 15 -21 -10 -27
0 -8 13 12 8 19 20 16 26 -4 6 -2 8 4 5 16 -11 65 52 52 68 -5 6 -8 14 -5 17
3 2 -2 5 -10 5 -9 0 -14 -6 -11 -14 3 -7 -1 -13 -9 -13 -8 0 -15 6 -15 13 0
18 -55 20 -70 2z"/>
<path d="M1631 5352 c-8 -3 -25 -17 -38 -31 -20 -22 -23 -33 -18 -76 7 -55 25
-80 67 -90 23 -6 34 -1 63 28 30 30 35 41 33 79 -1 34 -7 48 -29 66 -30 25
-55 32 -78 24z"/>
<path d="M1957 5322 c-2 -4 -3 -29 -1 -57 2 -27 3 -62 3 -77 1 -26 4 -28 44
-28 50 0 71 17 82 67 6 32 -14 81 -28 66 -4 -3 -7 1 -7 10 0 10 -8 18 -17 18
-10 1 -30 3 -45 5 -15 1 -29 0 -31 -4z"/>
<path d="M9620 3432 c0 -8 -10 -13 -22 -12 -13 1 -50 1 -83 -1 -33 -1 32 -5
145 -9 258 -9 290 -14 290 -45 0 -21 -5 -23 -72 -29 -40 -3 -90 -6 -110 -5
-28 0 -38 -4 -38 -16 0 -8 5 -15 10 -15 6 0 10 -5 10 -11 0 -5 -5 -7 -11 -3
-16 10 6 -29 26 -46 13 -11 19 -10 35 5 40 36 33 4 -8 -38 -57 -58 -56 -77 6
-77 66 0 158 -16 194 -35 17 -8 54 -15 82 -16 70 0 129 -12 133 -25 2 -7 -3
-19 -12 -28 -21 -21 -99 -21 -225 0 -150 24 -194 28 -187 17 4 -7 -27 -9 -91
-6 -81 3 -94 2 -81 -9 14 -11 9 -13 -32 -13 -39 0 -54 -5 -76 -27 -25 -26 -26
-29 -14 -68 6 -22 9 -45 6 -50 -3 -5 -25 -15 -47 -21 -35 -9 -47 -8 -69 5 -26
15 -30 15 -64 -4 -31 -17 -42 -19 -75 -10 -22 6 -44 18 -50 28 -9 13 -10 14
-7 1 4 -13 -4 -15 -54 -14 -61 2 -68 -2 -47 -23 10 -10 10 -15 -2 -22 -8 -5
-17 -7 -21 -4 -4 2 -7 -5 -6 -16 1 -14 6 -19 17 -14 49 21 91 26 105 14 21
-17 0 -32 -32 -23 -14 3 -23 1 -23 -6 0 -6 8 -11 18 -12 11 -1 8 -4 -8 -8 -15
-4 -24 -14 -24 -24 1 -9 -2 -17 -7 -17 -18 0 -8 -18 14 -26 18 -6 13 -8 -25
-11 l-48 -4 14 -27 c32 -63 148 -131 222 -132 12 0 27 -7 34 -15 7 -8 26 -15
42 -15 16 0 43 -6 61 -14 18 -7 59 -16 92 -20 101 -12 115 -16 115 -37 0 -10
-4 -19 -10 -19 -5 0 -7 8 -3 18 5 16 5 16 -8 0 -16 -20 -84 -50 -92 -42 -3 4
-50 6 -104 6 -71 1 -111 6 -146 19 -54 22 -57 22 -57 11 0 -5 16 -17 37 -28
20 -10 46 -29 58 -41 37 -36 143 -84 244 -110 77 -20 130 -26 265 -30 386 -13
603 73 701 276 61 125 107 446 85 586 -6 39 -12 81 -14 94 -2 14 -11 30 -20
37 -12 8 -14 14 -6 19 6 4 8 15 5 26 -4 13 -1 21 10 25 13 5 14 9 4 15 -7 4
-22 1 -35 -7 -20 -14 -22 -13 -27 8 -4 13 -19 36 -35 51 l-29 28 4 -24 c7 -35
-16 -45 -39 -17 -10 12 -18 20 -18 16 0 -3 -24 8 -54 24 -52 29 -161 53 -284
63 -96 8 -40 -10 83 -27 83 -12 128 -23 147 -36 15 -11 34 -20 42 -20 27 0 46
-12 46 -30 0 -21 -42 -39 -48 -21 -2 6 -9 8 -15 4 -20 -13 -35 -12 -41 3 -9
25 -35 15 -61 -23 -21 -31 -25 -34 -25 -16 0 12 -3 28 -6 37 -4 10 -1 16 9 16
8 0 20 7 27 15 10 12 7 15 -17 21 -41 11 -63 7 -78 -13 -13 -17 -17 -15 -63
31 -40 38 -55 47 -73 42 -13 -3 -18 -3 -11 0 27 13 8 22 -59 28 -39 4 -117 7
-172 7 -70 -1 -103 3 -109 12 -6 9 -8 9 -8 -1z m-233 -796 c-4 -10 -1 -13 8
-9 8 3 13 9 10 13 -7 11 66 0 81 -11 13 -11 147 -7 155 5 4 5 12 6 18 2 12 -8
-22 -46 -41 -46 -7 0 -2 -9 12 -20 14 -11 20 -20 13 -20 -6 0 -15 5 -18 10
-10 15 -35 12 -35 -5 0 -9 -9 -15 -24 -15 -25 0 -43 -15 -29 -23 5 -2 2 -2 -5
0 -7 1 -22 -2 -33 -7 -15 -8 -19 -7 -19 5 0 8 -6 15 -14 15 -19 0 -29 -17 -16
-25 5 -3 10 -11 10 -18 0 -8 -3 -8 -12 1 -7 7 -11 27 -10 45 3 41 -18 55 -100
63 -35 3 -67 9 -71 14 -10 9 66 38 102 39 16 1 22 -3 18 -13z m1051 -94 c-5
-70 -41 -128 -86 -138 -15 -4 -31 -9 -37 -13 -13 -7 -33 -12 -70 -14 -17 -2
-36 -6 -43 -11 -6 -4 -16 -4 -22 -1 -5 3 -10 3 -10 -2 0 -4 -18 -8 -40 -8 -33
0 -40 3 -41 20 -1 17 -2 17 -6 3 -5 -22 -23 -24 -23 -3 0 15 -24 16 -47 2 -17
-11 -25 8 -14 35 17 45 41 56 130 61 61 3 90 10 109 24 15 10 48 27 73 36 26
10 61 34 79 53 41 46 54 34 48 -44z m-562 52 c-5 -13 -1 -15 19 -12 14 3 30
-1 37 -9 9 -12 3 -23 -33 -59 l-45 -44 -62 27 c-34 15 -62 33 -62 40 0 21 43
43 86 43 28 0 44 5 48 15 3 8 8 15 12 15 3 0 3 -7 0 -16z"/>
<path d="M9273 3403 c-40 -3 -55 -9 -63 -24 -6 -11 -16 -17 -23 -13 -9 5 -9 4
0 -6 9 -10 21 -10 63 4 29 10 54 15 56 13 3 -2 -14 -16 -36 -31 -22 -15 -38
-31 -35 -36 9 -15 26 -12 41 8 12 16 13 16 10 -2 -2 -11 -11 -25 -20 -30 -13
-9 -21 -6 -34 10 -10 11 -30 29 -45 39 -15 10 -25 20 -23 23 3 2 -1 11 -9 18
-11 12 -18 9 -43 -16 -27 -27 -52 -36 -89 -31 -13 2 -30 -46 -20 -56 4 -3 18
-5 32 -5 29 0 30 -6 11 -52 -9 -21 -23 -36 -39 -39 -19 -5 -23 -12 -20 -31 4
-18 10 -23 22 -18 14 5 14 4 1 -13 -14 -17 -13 -18 15 -11 35 9 45 17 28 23
-27 10 -13 33 20 33 26 -1 29 -2 15 -11 -24 -14 -24 -42 0 -35 15 5 18 0 17
-29 -1 -19 2 -35 7 -35 13 0 -13 -25 -34 -32 -9 -4 -22 -17 -28 -29 -8 -15 -9
-19 -1 -15 6 4 11 1 11 -7 0 -8 7 -21 16 -28 9 -7 20 -22 24 -34 8 -19 9 -19
9 3 1 12 5 22 11 22 5 0 7 6 4 14 -6 15 29 32 55 27 28 -5 59 9 65 31 5 15 9
18 13 10 4 -11 8 -10 22 1 10 9 28 13 49 10 33 -5 41 -20 20 -42 -7 -6 5 -3
27 8 22 11 49 23 59 26 40 12 -3 26 -95 30 -115 5 -139 12 -139 36 0 14 9 21
30 26 17 3 29 11 27 17 -4 12 17 36 32 36 19 0 28 35 25 99 -1 42 1 59 7 50 5
-8 9 -24 9 -36 0 -26 18 -39 32 -25 17 17 18 73 2 79 -8 3 -21 18 -30 34 -13
27 -13 29 3 29 10 0 25 5 33 10 16 10 13 10 -97 3z"/>
<path d="M9613 3368 c3 -9 1 -19 -6 -21 -9 -3 -9 -8 1 -18 18 -20 15 -27 -18
-34 -24 -5 -37 -1 -61 19 -23 20 -35 24 -44 16 -10 -8 -15 -8 -18 2 -2 7 -3 5
-2 -4 2 -11 -13 -31 -38 -50 -23 -18 -44 -36 -47 -40 -3 -4 -17 -11 -30 -17
-24 -9 -24 -9 -5 -17 30 -12 47 -31 34 -39 -6 -4 -8 -13 -5 -21 4 -9 -2 -14
-16 -14 -47 0 -5 -13 70 -21 63 -7 87 -6 113 6 19 8 28 14 22 15 -7 0 -13 9
-13 19 0 11 -6 22 -12 24 -8 4 -7 6 3 6 9 1 24 -10 33 -24 13 -20 25 -25 56
-25 l39 0 -14 27 c-16 30 -10 47 11 39 8 -3 30 4 49 17 34 22 44 37 25 37 -20
0 -28 35 -16 72 13 35 12 36 -14 42 -15 2 -37 2 -49 -1 -11 -3 -29 1 -38 8
-15 12 -16 12 -10 -3z"/>
<path d="M1906 2979 c-35 -28 -37 -95 -3 -127 50 -47 147 -12 147 53 0 33 -24
81 -45 89 -32 12 -73 6 -99 -15z"/>
<path d="M2070 2915 c0 -69 3 -85 15 -85 10 0 15 10 15 29 0 44 15 46 40 6 12
-19 28 -35 36 -35 18 0 18 5 -2 36 -15 23 -15 26 0 43 39 43 8 91 -60 91 l-44
0 0 -85z"/>
<path d="M3865 2990 c-4 -6 -5 -21 -3 -34 1 -13 -6 -33 -16 -45 -39 -43 11
-103 69 -81 14 5 40 7 57 3 33 -6 33 -6 14 15 -18 20 -18 23 -2 47 15 23 15
25 0 25 -9 0 -22 -7 -28 -16 -11 -14 -16 -11 -45 21 -35 40 -31 67 7 44 25
-16 40 -5 22 16 -14 17 -65 20 -75 5z"/>
<path d="M1920 2527 c-43 -22 -51 -51 -48 -185 3 -122 3 -124 31 -148 l28 -24
674 0 674 0 28 24 28 24 0 136 c0 128 -1 137 -23 158 l-23 23 -672 2 c-526 2
-677 0 -697 -10z"/>
</g>
</svg>
